<?xml version="1.0" encoding="utf-8"?>
<!-- Generator: Adobe Illustrator 23.0.1, SVG Export Plug-In . SVG Version: 6.00 Build 0)  -->
<svg version="1.1" id="Слой_1" xmlns="http://www.w3.org/2000/svg" xmlns:xlink="http://www.w3.org/1999/xlink" x="0px" y="0px"
	 viewBox="0 0 262 39" style="enable-background:new 0 0 262 39;" xml:space="preserve" width="210">
<style type="text/css">
	.st0{fill-rule:evenodd;clip-rule:evenodd;fill:#FFFFFF;}
	.st1{fill:#FFFFFF;}
</style>
<path class="st0" d="M38.3,20.6c1.9-0.1,1.9,0,1.9-1.9c-0.5-0.9-1.4-0.3-2.1-0.7c-0.2-0.7-0.2-1.2-0.2-1.9c0.1-0.1,0.2-0.2,0.3-0.3
	c1.6-0.4,1.5-0.5,1.1-2.1c-0.6-0.8-1.4-0.2-2.2-0.2c-0.4-0.7-0.4-0.7-0.7-1.5c0-1.1,1.4-0.8,1.4-1.9c-0.3-0.9-0.6-1.4-1.4-1.4
	c-1.6,0.8-1.5,0.8-2.5-0.6c-0.2-0.8,0.8-1.1,1-1.9c-0.5-0.7-0.9-1.3-1.7-1.3c-0.4,0.4-0.7,0.7-1.1,1c-0.8,0-1.6-0.6-1.6-1.5
	c0.8-1.5,0.8-1.5-0.8-2.4c-0.8,0.2-0.9,0.8-1.4,1.4c-0.8,0-1.3-0.2-1.9-0.6c-0.2-0.7,0.5-1.6-0.1-2.2c-1.5-0.4-1.7-0.5-2.2,1.1
	c-0.5,0.6-1.5,0.4-2.2,0.1c0-0.1-0.1-0.2-0.1-0.3c-0.1-2,0.1-1.7-2-1.7c-0.7,0.3-0.2,1.3-0.5,2c-0.6,0.2-1.2,0.3-1.8,0.3
	c-1.2-1,0-2-2.1-1.7c-0.2,0.3-0.6,0.3-0.8,0.5c0,0.6,0.1,1.1,0.2,1.7c-0.3,0.7-1.3,0.9-2,0.9c-0.3-0.4-0.6-0.9-0.9-1.3
	C11.2,2.1,10,2.7,10,3.5c0.8,1.6,0.8,1.5-0.6,2.9c-1,0-1.1-1-2.1-1C6,6.5,5.7,6.6,7,7.9c0.4,0.6-0.3,1.2-0.7,1.7
	c-1,0.5-1.5-0.9-2.5-0.2C3,10.9,3,10.9,4.5,11.8c0.4,0.5-0.1,1.7-0.6,2C2,13.8,2.1,13,1.5,15c0,1.2,1.1,0.7,1.8,1.4
	c0,0.6-0.1,1.2-0.2,1.8c-0.4,0.2-1,0.1-1.5,0.1c0,0.1-0.2,0.1-0.4,0.2C0.9,19,1,19.6,1,20.2C1.5,21,2.4,20.5,3.4,21
	c0.1,0.3,0.5,2-0.1,2v0.1c-0.3,0.1-0.7,0.2-1,0.3c-0.7,0.5-0.4,1.9,0.3,2.3c0.5,0,1.3-0.4,1.8-0.1C4.6,26,4.8,26.5,5,26.9
	c0,0.8-0.6,0.6-0.8,1.1c-0.9,0.2-0.6,0.8-0.3,1.5H4c0.4,1.2,1.3,0.4,2.1,0c0.6,0.2,1.3,1,1.2,1.8c-0.4,0.4-0.9,0.7-1,1.3
	c0.2,0.7,0.8,1.3,1.6,1.3c1.3-1.1,1.2-1.2,2.5-0.2h0.1c0.1,0.3,0.1,0.5,0.1,0.8c-0.8,1.4-0.7,1.6,0.9,2.4c0.8-0.2,0.9-0.8,1.4-1.4
	c0.6,0,1.7,0.2,1.9,0.9c-0.2,0.6-0.5,1.4,0,1.9c1.7,0.5,1.8,0.4,2.3-1.4c0.7-0.3,1.5-0.1,2.1,0.1c0.2,0.6,0,1.3,0.3,1.9
	c0.1,0,0.1,0,0.2,0.1c0.6,0,1.1,0,1.6-0.2c0.6-0.3,0.3-1.4,0.5-2c0.6-0.2,1.2-0.3,1.8-0.3c0.2,0.1,0.2,0.1,0.3,0.1
	c0.1,0.5,0.3,1,0.5,1.5c0.6,0.4,1.6,0,2.1-0.4c0-0.6-0.3-1.3-0.1-1.9c0.7-0.3,1.1-0.6,1.9-0.6c1,1.5,1.1,1.7,2.7,0.6
	c0.4-0.6-0.1-1-0.4-1.6c0-0.9,0.7-1.5,1.6-1.5c1.4,1.1,1.2,1.3,2.6,0c0.4-0.7-0.2-1.1-0.7-1.6c-0.3-0.8,0.5-1.9,1.3-1.9
	c1.6,0.9,1.7,0.8,2.5-0.8c0-1.1-1.4-0.8-1.4-1.9c0.6-1.3,0.4-1.5,1.8-1.3c0.1,0,0.1,0.1,0.1,0.1c1.1,0.1,1-0.4,1.3-1.4
	c0-1.2-1.1-0.7-1.8-1.4c0-0.6,0.1-1.2,0.2-1.8C38.2,20.7,38.2,20.6,38.3,20.6z M14.1,21.8c-0.8-0.8-1.4-1.7-1.9-2.8
	c-0.5-1-0.7-2.1-0.7-3.3s0.2-2.3,0.7-3.3s1.1-2,1.9-2.8c0.8-0.8,1.7-1.4,2.8-1.9C18,7.2,19.1,7,20.4,7c0.7,0,1.4,0.1,2,0.2
	c0.7,0.2,1.3,0.4,2,0.7v2.9c-0.9-0.6-1.6-1-2.2-1.2c-0.6,0.1-1.2,0-1.8,0c-0.8,0-1.6,0.2-2.4,0.5c-0.7,0.3-1.4,0.8-1.9,1.3
	c-0.6,0.6-1,1.3-1.3,2c-0.3,0.8-0.5,1.6-0.5,2.5c0,0.9,0.2,1.8,0.5,2.5c0.3,0.8,0.8,1.5,1.3,2c0.6,0.6,1.2,1,1.9,1.3
	s1.5,0.5,2.3,0.5v2.2c-1.2,0-2.4-0.2-3.4-0.7C15.8,23.2,14.9,22.6,14.1,21.8z M28.9,26.9c-0.5,1-1.1,2-1.9,2.8s-1.7,1.4-2.8,1.9
	c-1.1,0.5-2.2,0.7-3.5,0.7c-0.7,0-1.4-0.1-2-0.2c-0.7-0.2-1.3-0.4-2-0.7v-2.8c0.9,0.6,1.6,1,2.2,1.2c0.6,0.2,1.2,0.3,1.8,0.3
	c0.8,0,1.5-0.1,2.1-0.4c0.7-0.3,1.3-0.6,1.8-1.1s1-1.1,1.3-1.7c0.4-0.7,0.6-1.4,0.7-2.2H21v-2.3h5.6c-0.1-0.8-0.3-1.3-0.7-2
	c-0.4-0.7-0.8-1.2-1.3-1.7s-1.1-0.9-1.8-1.1c-0.7-0.3-1.4-0.4-2.1-0.4c-0.6,0-1.2,0.1-1.8,0.3c-0.6,0.2-1.3,0.6-2.2,1.2v-2.9
	c0.6-0.3,1.3-0.5,2-0.7c0.7-0.2,1.4-0.2,2-0.2c1.2,0,2.4,0.2,3.5,0.7c1.1,0.5,2,1.1,2.8,1.9s1.4,1.7,1.9,2.8c0.5,1,0.7,2.1,0.7,3.3
	C29.6,24.8,29.4,25.9,28.9,26.9z"/>
<path class="st1" d="M69.4,11.4l0.1,1.1c0,0.4,0,0.7,0,0.9c-0.1,0.1-0.2,0.2-0.3,0.2c-0.1,0-0.2-0.1-0.3-0.2
	c-0.1-0.1-0.3-0.4-0.6-0.9c-0.6-0.9-1.2-1.5-1.8-1.8c-0.6-0.3-1.4-0.5-2.2-0.5c-2,0-3.7,0.7-4.8,2.2c-1.2,1.5-1.8,3.4-1.8,5.6
	c0,2.4,0.6,4.4,1.8,5.9s2.8,2.3,4.6,2.3c0.5,0,1-0.1,1.5-0.2c0.5-0.2,0.9-0.4,1.4-0.8s1-1.1,1.5-1.9s0.6-1.1,0.6-1
	c0.1-0.1,0.1-0.2,0.2-0.2s0.1,0,0.2,0c0.2,0,0.3,0.1,0.3,0.2c0.1,0.1,0.1,0.6,0,1.4l-0.1,0.9c0,0.5-0.2,0.8-0.4,1
	c-0.2,0.2-0.5,0.4-1,0.6c-0.8,0.3-1.5,0.5-2.2,0.7c-0.7,0.1-1.5,0.2-2.2,0.2c-2.6,0-4.9-0.8-6.7-2.4s-2.8-3.7-2.8-6.3
	c0-2.5,0.9-4.7,2.8-6.4c1.8-1.7,4.2-2.5,7-2.5c0.7,0,1.6,0.1,2.4,0.2c0.9,0.1,1.6,0.3,2.1,0.5c0.2,0.1,0.4,0.2,0.5,0.3
	C69.2,10.6,69.3,10.9,69.4,11.4L69.4,11.4z M73.5,9.8h10.6c0.3,0,0.6,0,0.7-0.1s0.3-0.2,0.4-0.4c0.1-0.3,0.2-0.4,0.3-0.5
	c0.1-0.1,0.2-0.1,0.3-0.1c0.2,0,0.3,0.1,0.3,0.2s0.1,0.3,0.1,0.7L86,11.8c-0.1,1.1-0.1,1.7-0.2,1.8s-0.2,0.1-0.3,0.1
	c-0.1,0-0.2,0-0.3-0.1c-0.1-0.1-0.1-0.2-0.2-0.3l-0.4-1c-0.2-0.5-0.4-0.9-0.8-1.1c-0.3-0.3-0.7-0.4-1.2-0.4h-2.2
	c-0.2,0-0.4,0-0.4,0.1s-0.1,0.2-0.1,0.4v12.3c0,0.8,0.1,1.4,0.3,1.7c0.2,0.3,0.6,0.5,1.3,0.5c0.5,0.1,0.8,0.1,0.8,0.2
	s0.1,0.1,0.1,0.3c0,0.1,0,0.2-0.1,0.3c-0.1,0.1-0.2,0.1-0.4,0.1c-0.4,0-0.9,0-1.7-0.1c-0.7,0-1.3-0.1-1.7-0.1s-0.9,0-1.7,0.1
	c-0.8,0-1.3,0.1-1.7,0.1c-0.2,0-0.3,0-0.4-0.1s-0.2-0.2-0.2-0.3c0-0.1,0-0.2,0.1-0.3c0.1,0,0.2-0.1,0.5-0.1c0.9-0.1,1.4-0.2,1.6-0.6
	c0.2-0.3,0.3-0.9,0.3-1.7V11.2c0-0.2-0.1-0.3-0.2-0.4c-0.1,0-0.5-0.1-1-0.1c-1.2,0-2,0.2-2.5,0.5s-1,0.9-1.4,1.6
	c-0.2,0.4-0.4,0.7-0.5,0.8s-0.2,0.1-0.3,0.1c-0.1,0-0.2,0-0.3-0.1c-0.1-0.1-0.1-0.2-0.1-0.3s0-0.2,0-0.3s0.1-0.3,0.1-0.5l0.9-3.2
	c0-0.2,0.1-0.3,0.2-0.4c0.1-0.1,0.2-0.1,0.3-0.1c0.1,0,0.2,0,0.3,0.1c0.1,0.1,0.1,0.2,0.1,0.5c0,0.2,0.1,0.3,0.2,0.4
	C73.1,9.8,73.3,9.8,73.5,9.8L73.5,9.8z M89.4,23.5V12.9c0-0.8-0.1-1.4-0.3-1.7c-0.2-0.3-0.6-0.5-1.2-0.5c-0.5-0.1-0.8-0.1-0.8-0.1
	c-0.1,0-0.1-0.1-0.1-0.3s0-0.3,0.1-0.3c0.1-0.1,0.2-0.1,0.4-0.1c0.4,0,0.9,0,1.7,0s1.3,0,1.6,0c0.1,0,0.3,0,0.5,0s0.8,0,1.8-0.1
	c0.3,0,0.6,0,0.9,0s0.6,0,0.9,0c2,0,3.6,0.4,4.6,1.3c1,0.9,1.6,2,1.6,3.4s-0.5,2.6-1.5,3.5s-2.2,1.4-3.7,1.4c-0.4,0-0.8,0-1.2-0.1
	c-0.4-0.1-0.8-0.2-1.2-0.3c-0.5-0.2-0.7-0.2-0.8-0.2h-0.1c-0.1,0-0.2,0-0.2,0.1c0,0-0.1,0.2-0.1,0.3v4.3c0,0.7,0.1,1.3,0.3,1.6
	c0.2,0.3,0.8,0.5,1.9,0.6c0.2,0,0.4,0,0.5,0.1s0.1,0.2,0.1,0.3c0,0.1,0,0.2-0.1,0.3c-0.1,0.1-0.2,0.1-0.4,0.1c-0.4,0-1,0-1.7-0.1
	c-0.8,0-1.3-0.1-1.7-0.1c-0.4,0-0.9,0-1.7,0.1c-0.8,0-1.3,0.1-1.7,0.1c-0.2,0-0.4,0-0.5-0.1s-0.1-0.2-0.1-0.3c0-0.1,0-0.2,0.1-0.3
	c0.1-0.1,0.2-0.1,0.4-0.1c0.7,0,1.2-0.2,1.4-0.4C89.3,25,89.4,24.4,89.4,23.5L89.4,23.5z M92.4,12.8v4.3c0,0.2,0,0.4,0.1,0.5
	c0,0.1,0.2,0.2,0.3,0.3c0.2,0.1,0.5,0.2,0.9,0.3c0.3,0.1,0.7,0.1,1,0.1c1.2,0,2.1-0.4,2.7-1.2s1-1.7,1-2.8c0-1.2-0.4-2.1-1.1-2.8
	c-0.7-0.6-1.7-1-3-1c-0.5,0-0.9,0.1-1.1,0.2c-0.3,0.1-0.5,0.3-0.6,0.5c-0.1,0.1-0.1,0.3-0.1,0.5C92.4,12.1,92.4,12.4,92.4,12.8
	L92.4,12.8z M112,27c-1.3,0-2.4-0.2-3.5-0.6s-2-0.9-2.8-1.7c-1-0.9-1.7-1.9-2.2-3.1s-0.7-2.3-0.7-3.6c0-1.2,0.2-2.4,0.7-3.5
	s1.2-2.1,2.2-3c0.8-0.7,1.7-1.3,2.8-1.6s2.2-0.6,3.5-0.6s2.5,0.2,3.5,0.6c1,0.4,1.9,1,2.7,1.7c1,0.9,1.7,1.9,2.2,3.1
	s0.7,2.3,0.7,3.5s-0.2,2.4-0.7,3.5s-1.2,2.1-2.2,3c-0.8,0.7-1.7,1.2-2.8,1.6C114.4,26.8,113.2,27,112,27L112,27z M112.2,26.2
	c0.8,0,1.5-0.1,2.2-0.4s1.3-0.8,1.8-1.4c0.6-0.7,1.1-1.6,1.4-2.6s0.5-2,0.5-3.1s-0.1-2.1-0.4-3.2c-0.3-1-0.7-2-1.3-2.8
	c-0.6-0.8-1.2-1.5-2-1.9s-1.6-0.6-2.6-0.6c-0.8,0-1.6,0.2-2.3,0.5c-0.7,0.3-1.3,0.8-1.8,1.3c-0.6,0.7-1.1,1.5-1.4,2.5
	s-0.5,2-0.5,3.2s0.1,2.3,0.4,3.3s0.7,1.9,1.2,2.7c0.6,0.8,1.3,1.5,2,1.9C110.3,26,111.2,26.2,112.2,26.2L112.2,26.2z M128.4,21.8
	l8-9.1v-0.1c0-0.7-0.1-1.2-0.4-1.5c-0.3-0.3-0.7-0.4-1.5-0.4c-0.2,0-0.3,0-0.4-0.1c-0.1,0-0.1-0.1-0.1-0.3s0-0.3,0.1-0.3
	c0.1-0.1,0.2-0.1,0.5-0.1s0.9,0,1.6,0.1c0.7,0,1.3,0.1,1.6,0.1c0.4,0,0.9,0,1.6-0.1c0.7,0,1.3-0.1,1.6-0.1c0.2,0,0.4,0,0.5,0.1
	s0.1,0.2,0.1,0.3s0,0.2-0.1,0.3s-0.2,0.1-0.4,0.1c-0.8,0.1-1.3,0.2-1.5,0.6c-0.2,0.3-0.3,0.9-0.3,1.7v10.6c0,0.8,0.1,1.4,0.3,1.7
	c0.2,0.3,0.7,0.5,1.5,0.6c0.3,0,0.4,0.1,0.5,0.1c0.1,0.1,0.1,0.2,0.1,0.3c0,0.1,0,0.3-0.2,0.3c-0.1,0.1-0.2,0.1-0.4,0.1
	c-0.4,0-0.9,0-1.6-0.1c-0.7,0-1.3-0.1-1.6-0.1c-0.4,0-0.9,0-1.6,0.1c-0.7,0-1.3,0.1-1.6,0.1c-0.2,0-0.4,0-0.4-0.1
	c-0.1-0.1-0.1-0.2-0.1-0.3c0-0.1,0-0.2,0.1-0.3c0.1-0.1,0.2-0.1,0.4-0.1c0.8-0.1,1.3-0.2,1.5-0.5s0.3-0.9,0.3-1.7v-9.3l-8,9.1v0.4
	c0,0.7,0.1,1.2,0.3,1.5s0.7,0.5,1.5,0.5c0.3,0,0.4,0.1,0.5,0.1c0.1,0.1,0.1,0.2,0.1,0.3c0,0.1-0.1,0.3-0.2,0.3
	c-0.1,0.1-0.3,0.1-0.4,0.1c-0.4,0-0.9,0-1.6-0.1c-0.7,0-1.3-0.1-1.6-0.1c-0.4,0-0.9,0-1.6,0.1c-0.7,0-1.3,0.1-1.6,0.1
	c-0.2,0-0.4,0-0.4-0.1c-0.1-0.1-0.1-0.2-0.1-0.3c0-0.1,0-0.2,0.1-0.3c0.1-0.1,0.2-0.1,0.4-0.1c0.8-0.1,1.3-0.2,1.5-0.5
	s0.3-0.9,0.3-1.7V12.8c0-0.8-0.1-1.4-0.3-1.7c-0.2-0.3-0.7-0.5-1.5-0.5c-0.2,0-0.3,0-0.4-0.1c-0.1,0-0.1-0.1-0.1-0.3s0-0.3,0.1-0.3
	c0.1-0.1,0.2-0.1,0.5-0.1c0.4,0,0.9,0,1.6,0.1c0.7,0,1.3,0.1,1.6,0.1c0.4,0,0.9,0,1.6-0.1c0.7,0,1.3-0.1,1.6-0.1
	c0.2,0,0.4,0,0.5,0.1s0.1,0.2,0.1,0.3s0,0.2-0.1,0.3s-0.2,0.1-0.4,0.1c-0.8,0.1-1.3,0.2-1.5,0.6c-0.2,0.3-0.3,0.9-0.3,1.7
	L128.4,21.8L128.4,21.8z M136.9,6c-0.6,1.2-1.2,2-1.9,2.6s-1.5,0.8-2.4,0.8s-1.7-0.2-2.4-0.7c-0.7-0.4-1-0.9-1-1.5
	c0-0.4,0.2-0.8,0.6-1.3c0.4-0.5,0.8-0.8,1.1-0.8c0.1,0,0.3,0,0.3,0.1c0.1,0.1,0.2,0.4,0.3,1.1c0.1,0.5,0.2,0.9,0.5,1.2
	s0.7,0.4,1.2,0.4s0.9-0.1,1.3-0.4c0.4-0.2,0.8-0.6,1.1-1.2c0.5-0.7,0.8-1,0.8-1.1c0.1,0,0.1-0.1,0.2-0.1h0.1h0.1
	c0.1,0,0.1,0.1,0.2,0.1c0,0.1,0.1,0.1,0.1,0.2s0,0.2,0,0.2C137,5.8,137,5.9,136.9,6L136.9,6z M151.4,17.1h3.4c0.3,0,0.5-0.1,0.6-0.2
	s0.2-0.3,0.2-0.5c0-0.6-0.2-1.4-0.5-2.2c-0.4-0.8-0.8-1.5-1.3-2.1c-0.6-0.7-1.3-1.2-1.9-1.5c-0.7-0.3-1.5-0.5-2.4-0.5
	c-1.1,0-1.9,0.2-2.6,0.7c-0.7,0.5-1.3,1.2-1.8,2.1c-0.1,0.2-0.2,0.4-0.3,0.4c-0.1,0.1-0.2,0.1-0.3,0.1c-0.2,0-0.3-0.1-0.4-0.2
	c-0.1-0.1-0.1-0.4,0-0.9l0.1-1.1c0.1-0.5,0.1-0.8,0.2-1c0.1-0.1,0.2-0.2,0.4-0.3c0.6-0.2,1.3-0.4,2.1-0.5c0.9-0.1,1.7-0.2,2.5-0.2
	c1.3,0,2.5,0.2,3.4,0.5c1,0.3,1.9,0.8,2.6,1.4c1.1,0.8,1.8,1.8,2.4,3s0.8,2.3,0.8,3.6s-0.2,2.6-0.8,3.8c-0.5,1.2-1.2,2.2-2.1,3
	c-0.8,0.8-1.7,1.4-2.9,1.7c-1.1,0.4-2.4,0.6-3.8,0.6c-0.9,0-1.8-0.1-2.7-0.3c-0.9-0.2-1.7-0.5-2.3-0.9c-0.2-0.2-0.4-0.3-0.5-0.5
	s-0.1-0.4-0.2-0.8l-0.1-0.9c-0.1-0.8-0.1-1.2,0-1.4c0.1-0.1,0.2-0.2,0.4-0.2c0.1,0,0.2,0,0.3,0.1s0.3,0.4,0.6,1.1
	c0.4,0.9,1,1.6,1.8,2.2c0.8,0.5,1.7,0.8,2.7,0.8c1.1,0,2.1-0.2,3-0.7s1.6-1.2,2.2-2.1c0.4-0.6,0.7-1.2,0.9-1.9
	c0.2-0.7,0.3-1.6,0.3-2.6c0-0.4,0-0.7-0.1-0.8c-0.1-0.1-0.2-0.2-0.4-0.2h-3.4c-1,0-1.6,0.2-2,0.5c-0.3,0.3-0.6,0.9-0.8,1.7
	c-0.1,0.3-0.1,0.5-0.2,0.6c-0.1,0.1-0.2,0.1-0.3,0.1s-0.2,0-0.3-0.1s-0.1-0.3-0.1-0.8c0-0.1,0-0.1,0-0.2s0-0.3,0.1-0.7
	c0-0.3,0.1-0.5,0.1-0.7s0-0.4,0-0.6c0-0.3,0-0.6,0-1.1s0-0.7,0-0.9c0-0.4,0-0.6,0-0.7c0.1-0.1,0.2-0.1,0.3-0.1s0.2,0,0.3,0.1
	s0.2,0.2,0.2,0.4c0.3,0.8,0.6,1.2,0.9,1.4C150.3,17,150.8,17.1,151.4,17.1L151.4,17.1z M163.1,23.5V12.9c0-0.9-0.1-1.4-0.3-1.7
	s-0.7-0.5-1.5-0.5c-0.2,0-0.3,0-0.4-0.1c-0.1-0.1-0.1-0.2-0.1-0.3c0-0.2,0-0.3,0.1-0.3c0.1-0.1,0.3-0.1,0.7-0.1c0.3,0,0.8,0,1.5,0.1
	c0.7,0,1.2,0.1,1.5,0.1s0.8,0,1.5-0.1c0.7,0,1.2-0.1,1.5-0.1c0.4,0,0.6,0,0.7,0.1c0.1,0.1,0.1,0.2,0.1,0.3s0,0.2-0.1,0.3
	s-0.2,0.1-0.4,0.1c-0.8,0-1.3,0.2-1.5,0.5s-0.3,0.9-0.3,1.7v3.8c0,0.3,0,0.5,0.1,0.6s0.3,0.1,0.7,0.1h0.5c0.8,0,1.5-0.2,2-0.8
	c0.6-0.5,1-1.3,1.4-2.2l0.7-1.9c0.3-0.9,0.8-1.6,1.3-2.1c0.5-0.5,1.2-0.7,1.9-0.7s1.2,0.2,1.5,0.5c0.4,0.3,0.5,0.8,0.5,1.3
	c0,0.4-0.1,0.8-0.4,1.1c-0.3,0.3-0.6,0.4-1,0.4c-0.3,0-0.6-0.1-0.8-0.2c-0.2-0.1-0.4-0.4-0.6-0.7c-0.1-0.2-0.2-0.3-0.3-0.4
	c-0.1-0.1-0.2-0.1-0.3-0.1c-0.2,0-0.4,0.1-0.5,0.3s-0.3,0.6-0.6,1.3l-0.5,1.6c-0.3,0.8-0.6,1.5-1.1,1.9s-1,0.8-1.6,1v0.1
	c0.8,0,1.5,0.3,2.1,0.8c0.6,0.4,1.2,1.1,1.7,1.9l2.2,3.4c0.4,0.7,0.8,1.2,1.1,1.4c0.3,0.3,0.6,0.4,1,0.4c0.3,0,0.5,0,0.6,0.1
	c0.1,0,0.1,0.1,0.1,0.3c0,0.1,0,0.2-0.1,0.3c-0.1,0.1-0.2,0.1-0.4,0.1s-0.4,0-0.7,0s-0.6,0-0.7,0c-0.1,0-0.2,0-0.3,0s-0.2,0-0.3,0
	c-0.2,0-0.3,0-0.4,0s-0.1,0-0.1,0c-0.5,0-0.9-0.1-1.3-0.3c-0.4-0.2-0.8-0.7-1.2-1.5l-2.4-4.1c-0.5-0.9-1-1.5-1.5-1.9s-1-0.6-1.6-0.6
	c-0.2,0-0.4,0-0.5,0s-0.2,0-0.2,0.1c0,0,0,0.1-0.1,0.1c0,0,0,0.2,0,0.4v4.6c0,0.7,0.1,1.3,0.3,1.6c0.2,0.3,0.7,0.6,1.6,0.6
	c0.2,0,0.4,0,0.4,0.1c0.1,0.1,0.1,0.2,0.1,0.3s0,0.2-0.1,0.3c-0.1,0.1-0.3,0.1-0.5,0.1c-0.4,0-0.9,0-1.6-0.1c-0.7,0-1.3-0.1-1.6-0.1
	c-0.4,0-0.9,0-1.6,0.1c-0.7,0-1.3,0.1-1.6,0.1c-0.2,0-0.4,0-0.5-0.1s-0.2-0.2-0.2-0.3c0-0.1,0-0.2,0.1-0.3c0.1-0.1,0.2-0.1,0.5-0.1
	c0.8-0.1,1.3-0.2,1.5-0.5C163,24.9,163.1,24.3,163.1,23.5L163.1,23.5z M193.6,11.4l0.1,1.1c0,0.4,0,0.7,0,0.9
	c-0.1,0.1-0.2,0.2-0.3,0.2s-0.2-0.1-0.3-0.2c-0.1-0.1-0.3-0.4-0.6-0.9c-0.6-0.9-1.2-1.5-1.8-1.8s-1.4-0.5-2.2-0.5
	c-2,0-3.7,0.7-4.8,2.2c-1.2,1.5-1.8,3.4-1.8,5.6c0,2.4,0.6,4.4,1.8,5.9s2.8,2.3,4.6,2.3c0.5,0,1-0.1,1.5-0.2
	c0.5-0.2,0.9-0.4,1.4-0.8s1-1.1,1.5-1.9s0.6-1.1,0.6-1c0.1-0.1,0.1-0.2,0.2-0.2c0.1,0,0.1,0,0.2,0c0.2,0,0.3,0.1,0.3,0.2
	c0.1,0.1,0.1,0.6,0,1.4l-0.1,0.9c0,0.5-0.2,0.8-0.4,1s-0.5,0.4-1,0.6c-0.8,0.3-1.5,0.5-2.2,0.7c-0.7,0.1-1.5,0.2-2.2,0.2
	c-2.6,0-4.9-0.8-6.7-2.4s-2.8-3.7-2.8-6.3c0-2.5,0.9-4.7,2.8-6.4c1.8-1.7,4.2-2.5,7-2.5c0.7,0,1.6,0.1,2.4,0.2
	c0.9,0.1,1.6,0.3,2.1,0.5c0.2,0.1,0.4,0.2,0.5,0.3C193.5,10.6,193.5,10.9,193.6,11.4L193.6,11.4z M197.9,23.5V12.9
	c0-0.5,0-0.9-0.1-1.2c-0.1-0.2-0.1-0.4-0.3-0.6c-0.1-0.1-0.3-0.2-0.5-0.3s-0.5-0.1-0.9-0.1c-0.2,0-0.4-0.1-0.5-0.1
	c-0.1-0.1-0.1-0.2-0.1-0.3s0-0.2,0.1-0.3s0.2-0.1,0.5-0.1c0.4,0,0.9,0,1.6,0.1c0.7,0,1.3,0.1,1.6,0.1c0.5,0,1.1,0,2-0.1
	c0.9,0,1.6-0.1,2-0.1h2.9c0.4,0,1.1,0,2,0.1c0.9,0,1.6,0.1,2,0.1s0.9,0,1.6-0.1c0.7,0,1.3-0.1,1.6-0.1c0.2,0,0.4,0,0.5,0.1
	s0.1,0.2,0.1,0.3s0,0.2-0.1,0.3s-0.2,0.1-0.4,0.1c-0.4,0-0.7,0.1-0.9,0.1c-0.2,0.1-0.4,0.2-0.5,0.3c-0.1,0.2-0.2,0.4-0.3,0.6
	c-0.1,0.3-0.1,0.6-0.1,1.1v10.6c0,0.5,0,0.8,0.1,1.1c0.1,0.3,0.1,0.5,0.3,0.6c0.1,0.1,0.3,0.2,0.5,0.3c0.2,0.1,0.5,0.1,0.9,0.1
	c0.2,0,0.3,0,0.4,0.1c0.1,0.1,0.1,0.2,0.1,0.3c0,0.2,0,0.3-0.1,0.3c-0.1,0.1-0.2,0.1-0.5,0.1c-0.4,0-0.9,0-1.6-0.1
	c-0.7,0-1.3-0.1-1.6-0.1s-0.9,0-1.6,0.1c-0.7,0-1.3,0.1-1.6,0.1c-0.2,0-0.3,0-0.4-0.1c-0.1-0.1-0.1-0.2-0.1-0.3c0-0.1,0-0.2,0.1-0.3
	c0.1-0.1,0.2-0.1,0.4-0.1c0.5,0,0.8-0.1,1-0.2s0.4-0.2,0.5-0.3c0.1-0.1,0.2-0.3,0.3-0.6c0-0.2,0.1-0.6,0.1-1.2V12.1
	c0-0.5-0.2-0.9-0.5-1.1c-0.3-0.2-1-0.3-1.8-0.3h-3.2c-0.9,0-1.6,0.1-1.9,0.2c-0.4,0.2-0.5,0.5-0.5,1v11.4c0,0.5,0,0.8,0.1,1.1
	c0,0.3,0.1,0.5,0.3,0.6c0.1,0.1,0.3,0.2,0.5,0.3c0.2,0.1,0.6,0.1,1,0.1c0.2,0,0.3,0,0.4,0.1c0.1,0.1,0.1,0.2,0.1,0.3
	c0,0.2,0,0.3-0.1,0.3c-0.1,0.1-0.2,0.1-0.5,0.1c-0.4,0-0.9,0-1.6-0.1c-0.7,0-1.3-0.1-1.6-0.1c-0.4,0-0.9,0-1.6,0.1
	c-0.7,0-1.3,0.1-1.6,0.1c-0.2,0-0.3,0-0.4-0.1c-0.1-0.1-0.2-0.2-0.2-0.3c0-0.1,0-0.2,0.1-0.3c0.1-0.1,0.2-0.1,0.4-0.1
	c0.5,0,0.8-0.1,1-0.2s0.4-0.2,0.5-0.3c0.1-0.1,0.2-0.3,0.3-0.6C197.9,24.4,197.9,24,197.9,23.5L197.9,23.5z"/>
<path class="st1" d="M218.2,23.5V12.9c0-0.9-0.1-1.5-0.4-1.7c-0.2-0.3-0.7-0.4-1.5-0.5c-0.2,0-0.3,0-0.4-0.1c-0.1,0-0.1-0.1-0.1-0.3
	s0-0.3,0.1-0.3c0.1-0.1,0.3-0.1,0.5-0.1c0.3,0,0.8,0,1.5,0c0.6,0,1.2,0,1.8,0h3.9c0.6,0,1.4,0,2.3,0c1,0,1.6,0,1.9-0.1
	c0.3,0,0.6,0,0.7,0c0.1,0,0.1,0.2,0.1,0.4v0.5v1.2v1c0,0.2,0,0.4-0.1,0.5s-0.2,0.1-0.3,0.1s-0.2,0-0.3-0.1s-0.2-0.2-0.3-0.5
	c-0.1-0.4-0.3-0.7-0.5-1s-0.4-0.5-0.6-0.7c-0.3-0.2-0.7-0.4-1.1-0.5c-0.5-0.1-1.3-0.1-2.4-0.1c-0.8,0-1.4,0-1.6,0.1
	c-0.3,0.1-0.4,0.4-0.4,0.9V16c0,0.4,0.1,0.6,0.2,0.7c0.1,0.1,0.3,0.1,0.6,0.1h1.9c0.6,0,1-0.1,1.4-0.3c0.4-0.2,0.6-0.6,0.9-1.2
	c0.1-0.3,0.2-0.5,0.3-0.6s0.2-0.2,0.3-0.2s0.2,0,0.3,0.1s0.1,0.2,0.1,0.4c0,0.1,0,0.3,0,0.6s-0.1,0.6-0.1,0.9s0,0.6,0,0.9
	s0,1,0.1,2.3c0,0.5,0,0.7,0,0.8c-0.1,0.1-0.2,0.1-0.3,0.1s-0.2,0-0.3-0.2c-0.1-0.1-0.2-0.4-0.4-1c-0.2-0.7-0.5-1.2-0.9-1.4
	c-0.4-0.2-1-0.3-1.9-0.3h-1.3c-0.3,0-0.4,0-0.6,0.1c-0.1,0.1-0.2,0.3-0.2,0.6v4.3c0,1,0.2,1.7,0.5,2.1s0.9,0.6,1.7,0.6h1.3
	c0.4,0,0.8,0,1.2-0.1s0.8-0.2,1.1-0.4c0.3-0.2,0.5-0.4,0.8-0.7c0.2-0.3,0.5-0.8,0.9-1.5c0.1-0.3,0.3-0.5,0.3-0.6
	c0.1-0.1,0.2-0.1,0.3-0.1c0.2,0,0.3,0.1,0.3,0.2s0,0.4,0,0.7l-0.2,0.8c0,0.2-0.1,0.3-0.1,0.3s-0.1,0.6-0.2,1.8
	c0,0.2-0.1,0.4-0.1,0.4c-0.1,0-0.4,0.1-1.1,0.1h-2.7c-1.4,0-2.4,0-3-0.1c-0.6,0-1.1,0-1.6,0s-1.1,0-2.1,0.1c-0.9,0-1.6,0.1-2.1,0.1
	c-0.2,0-0.4,0-0.5-0.1s-0.1-0.2-0.1-0.3c0-0.1,0-0.2,0.1-0.3c0.1-0.1,0.2-0.1,0.4-0.1c0.8-0.1,1.3-0.2,1.5-0.5
	C218.1,24.9,218.2,24.3,218.2,23.5L218.2,23.5z M233.5,23.5V12.9c0-0.8-0.1-1.4-0.3-1.7s-0.6-0.5-1.2-0.5c-0.5-0.1-0.8-0.1-0.8-0.1
	c-0.1,0-0.1-0.1-0.1-0.3s0-0.3,0.1-0.3c0.1-0.1,0.2-0.1,0.4-0.1c0.4,0,0.9,0,1.7,0s1.3,0,1.6,0c0.1,0,0.3,0,0.5,0s0.8,0,1.8-0.1
	c0.3,0,0.6,0,0.9,0c0.3,0,0.6,0,0.9,0c2,0,3.6,0.4,4.6,1.3c1,0.9,1.6,2,1.6,3.4s-0.5,2.6-1.5,3.5s-2.2,1.4-3.7,1.4
	c-0.4,0-0.8,0-1.2-0.1s-0.8-0.2-1.2-0.3c-0.5-0.2-0.7-0.2-0.8-0.2h-0.1c-0.1,0-0.2,0-0.2,0.1c0,0-0.1,0.2-0.1,0.3v4.3
	c0,0.7,0.1,1.3,0.3,1.6c0.2,0.3,0.8,0.5,1.9,0.6c0.2,0,0.4,0,0.5,0.1s0.1,0.2,0.1,0.3c0,0.1,0,0.2-0.1,0.3c-0.1,0.1-0.2,0.1-0.4,0.1
	c-0.4,0-1,0-1.7-0.1c-0.8,0-1.3-0.1-1.7-0.1s-0.9,0-1.7,0.1c-0.8,0-1.3,0.1-1.7,0.1c-0.2,0-0.4,0-0.5-0.1s-0.1-0.2-0.1-0.3
	c0-0.1,0-0.2,0.1-0.3c0.1-0.1,0.2-0.1,0.4-0.1c0.7,0,1.2-0.2,1.4-0.4C233.4,25,233.5,24.4,233.5,23.5L233.5,23.5z M236.5,12.8v4.3
	c0,0.2,0,0.4,0.1,0.5c0,0.1,0.2,0.2,0.3,0.3c0.2,0.1,0.5,0.2,0.9,0.3s0.7,0.1,1,0.1c1.2,0,2.1-0.4,2.7-1.2c0.6-0.8,1-1.7,1-2.8
	c0-1.2-0.4-2.1-1.1-2.8c-0.7-0.6-1.7-1-3-1c-0.5,0-0.9,0.1-1.1,0.2c-0.3,0.1-0.5,0.3-0.6,0.5c-0.1,0.1-0.1,0.3-0.1,0.5
	C236.5,12.1,236.5,12.4,236.5,12.8L236.5,12.8z M248.8,9.8h10.6c0.3,0,0.6,0,0.7-0.1s0.3-0.2,0.4-0.4c0.1-0.3,0.2-0.4,0.3-0.5
	c0.1-0.1,0.2-0.1,0.3-0.1c0.2,0,0.3,0.1,0.3,0.2c0.1,0.1,0.1,0.3,0.1,0.7l-0.1,2.2c-0.1,1.1-0.1,1.7-0.2,1.8s-0.2,0.1-0.3,0.1
	c-0.1,0-0.2,0-0.3-0.1c-0.1-0.1-0.1-0.2-0.2-0.3l-0.4-1c-0.2-0.5-0.4-0.9-0.8-1.1c-0.3-0.3-0.7-0.4-1.2-0.4h-2.2
	c-0.2,0-0.4,0-0.4,0.1c-0.1,0.1-0.1,0.2-0.1,0.4v12.3c0,0.8,0.1,1.4,0.3,1.7c0.2,0.3,0.6,0.5,1.3,0.5c0.5,0.1,0.8,0.1,0.8,0.2
	s0.1,0.1,0.1,0.3c0,0.1,0,0.2-0.1,0.3c-0.1,0.1-0.2,0.1-0.4,0.1c-0.4,0-0.9,0-1.7-0.1c-0.7,0-1.3-0.1-1.7-0.1s-0.9,0-1.7,0.1
	c-0.8,0-1.3,0.1-1.7,0.1c-0.2,0-0.3,0-0.4-0.1c-0.1-0.1-0.2-0.2-0.2-0.3c0-0.1,0-0.2,0.1-0.3c0.1,0,0.2-0.1,0.5-0.1
	c0.9-0.1,1.4-0.2,1.6-0.6c0.2-0.3,0.3-0.9,0.3-1.7V11.2c0-0.2-0.1-0.3-0.2-0.4c-0.1,0-0.5-0.1-1-0.1c-1.2,0-2,0.2-2.5,0.5
	s-1,0.9-1.4,1.6c-0.2,0.4-0.4,0.7-0.5,0.8s-0.2,0.1-0.3,0.1s-0.2,0-0.3-0.1s-0.1-0.2-0.1-0.3s0-0.2,0-0.3s0.1-0.3,0.1-0.5l0.9-3.2
	c0-0.2,0.1-0.3,0.2-0.4c0.1-0.1,0.2-0.1,0.3-0.1s0.2,0,0.3,0.1s0.1,0.2,0.1,0.5c0,0.2,0.1,0.3,0.2,0.4
	C248.4,9.8,248.6,9.8,248.8,9.8L248.8,9.8z"/>
</svg>
