<?xml version="1.0" encoding="utf-8"?>
<!-- Generator: Adobe Illustrator 23.0.1, SVG Export Plug-In . SVG Version: 6.00 Build 0)  -->
<svg version="1.1" id="Слой_1" xmlns="http://www.w3.org/2000/svg" xmlns:xlink="http://www.w3.org/1999/xlink" x="0px" y="0px"
	 viewBox="0 0 262 39" style="enable-background:new 0 0 262 39;" xml:space="preserve">
<style type="text/css">
	.st0{fill-rule:evenodd;clip-rule:evenodd;fill:#0C0C0D;}
	.st1{fill:#FFFFFF;}
</style>
<g>
	<path class="st0" d="M19.7,39c0,0,0-0.1,0-0.1c-0.1,0-0.1,0-0.2,0c-0.3-0.6-0.1-1.3-0.3-1.9c-0.6-0.2-1.4-0.4-2.1-0.1
		c-0.5,1.8-0.6,1.9-2.3,1.4c-0.5-0.5-0.2-1.3,0-1.9c-0.2-0.7-1.3-0.9-1.9-0.9c-0.5,0.6-0.6,1.2-1.4,1.4c-1.6-0.8-1.7-1-0.9-2.4
		c0-0.3,0-0.5-0.1-0.8c0,0-0.1,0-0.1,0c-1.3-1-1.2-0.9-2.5,0.2c-0.8,0-1.4-0.6-1.6-1.3c0.1-0.6,0.6-0.9,1-1.3
		c0.1-0.8-0.6-1.6-1.2-1.8c-0.8,0.4-1.7,1.2-2.1,0c0,0-0.1,0-0.1,0c-0.3-0.7-0.6-1.3,0.3-1.5c0.2-0.5,0.8-0.3,0.8-1.1
		c-0.2-0.4-0.4-0.9-0.6-1.3c-0.5-0.3-1.3,0.1-1.8,0.1c-0.7-0.4-1-1.8-0.3-2.3c0.3-0.1,0.7-0.2,1-0.3c0,0,0-0.1,0-0.1
		c0.6,0,0.2-1.7,0.1-2C2.4,20.5,1.5,21,1,20.2c0-0.6-0.1-1.2,0.2-1.7c0.2-0.1,0.4-0.1,0.4-0.2c0.5,0,1.1,0.1,1.5-0.1
		c0.1-0.6,0.2-1.2,0.2-1.8c-0.7-0.7-1.8-0.2-1.8-1.4c0.6-2,0.5-1.2,2.4-1.2c0.5-0.3,1-1.5,0.6-2c-1.5-0.9-1.5-0.9-0.7-2.4
		c1-0.7,1.5,0.7,2.5,0.2c0.4-0.5,1.1-1.1,0.7-1.7c-1.3-1.3-1-1.4,0.3-2.5c1,0,1.1,1,2.1,1C10.8,5,10.8,5.1,10,3.5
		c0-0.8,1.2-1.4,1.9-1.3c0.3,0.4,0.6,0.9,0.9,1.3c0.7,0,1.7-0.2,2-0.9c-0.1-0.6-0.2-1.1-0.2-1.7c0.2-0.2,0.6-0.2,0.8-0.5
		c2.1-0.3,0.9,0.7,2.1,1.7c0.6,0,1.2-0.1,1.8-0.3c0.3-0.7-0.2-1.7,0.5-2c2.1,0,1.9-0.3,2,1.7c0,0.1,0.1,0.2,0.1,0.3
		c0.7,0.3,1.7,0.5,2.2-0.1c0.5-1.6,0.7-1.5,2.2-1.1c0.6,0.6-0.1,1.5,0.1,2.2c0.6,0.4,1.1,0.6,1.9,0.6c0.5-0.6,0.6-1.2,1.4-1.4
		c1.6,0.9,1.6,0.9,0.8,2.4c0,0.9,0.8,1.5,1.6,1.5c0.4-0.3,0.7-0.6,1.1-1c0.8,0,1.2,0.6,1.7,1.3c-0.2,0.8-1.2,1.1-1,1.9
		c1,1.4,0.9,1.4,2.5,0.6c0.8,0,1.1,0.5,1.4,1.4c0,1.1-1.4,0.8-1.4,1.9c0.3,0.8,0.3,0.8,0.7,1.5c0.8,0,1.6-0.6,2.2,0.2
		c0.4,1.6,0.5,1.7-1.1,2.1c-0.1,0.1-0.2,0.2-0.3,0.3c0,0.7,0,1.2,0.2,1.9c0.7,0.4,1.6-0.2,2.1,0.7c0,1.9,0,1.8-1.9,1.9
		c-0.1,0-0.1,0.1-0.2,0.1c-0.1,0.6-0.2,1.2-0.2,1.8c0.7,0.7,1.8,0.2,1.8,1.4c-0.3,1-0.2,1.5-1.3,1.4c0,0,0-0.1-0.1-0.1
		c-1.4-0.2-1.2,0-1.8,1.3c0,1.1,1.4,0.8,1.4,1.9c-0.8,1.6-0.9,1.7-2.5,0.8c-0.8,0-1.6,1.1-1.3,1.9c0.5,0.5,1.1,0.9,0.7,1.6
		c-1.4,1.3-1.2,1.1-2.6,0c-0.9,0-1.6,0.6-1.6,1.5c0.3,0.6,0.8,1,0.4,1.6c-1.6,1.1-1.7,0.9-2.7-0.6c-0.8,0-1.2,0.3-1.9,0.6
		c-0.2,0.6,0.1,1.3,0.1,1.9c-0.5,0.4-1.5,0.8-2.1,0.4c-0.2-0.5-0.4-1-0.5-1.5c-0.1,0-0.1,0-0.3-0.1c-0.6,0-1.2,0.1-1.8,0.3
		c-0.2,0.6,0.1,1.7-0.5,2C20.8,39,20.3,39,19.7,39L19.7,39z"/>
	<path class="st1" d="M20.4,9.6c-0.8,0-1.6,0.2-2.4,0.5c-0.7,0.3-1.4,0.8-1.9,1.3c-0.6,0.6-1,1.3-1.3,2c-0.3,0.8-0.5,1.6-0.5,2.5
		c0,0.9,0.2,1.8,0.5,2.5c0.3,0.8,0.8,1.5,1.3,2c0.6,0.6,1.2,1,1.9,1.3c0.7,0.3,1.5,0.5,2.3,0.5v2.2c-1.2,0-2.4-0.2-3.4-0.7
		c-1.1-0.5-2-1.1-2.8-1.9c-0.8-0.8-1.4-1.7-1.9-2.8c-0.5-1-0.7-2.1-0.7-3.3c0-1.2,0.2-2.3,0.7-3.3c0.5-1,1.1-2,1.9-2.8
		s1.7-1.4,2.8-1.9c1.1-0.5,2.2-0.7,3.5-0.7c0.7,0,1.4,0.1,2,0.2c0.7,0.2,1.3,0.4,2,0.7v2.9c-0.9-0.6-1.6-1-2.2-1.2
		C21.6,9.7,21,9.6,20.4,9.6L20.4,9.6z"/>
	<path class="st1" d="M21,22.4h5.6c-0.1-0.8-0.3-1.3-0.7-2c-0.4-0.7-0.8-1.2-1.3-1.7c-0.5-0.5-1.1-0.9-1.8-1.1
		c-0.7-0.3-1.4-0.4-2.1-0.4c-0.6,0-1.2,0.1-1.8,0.3c-0.6,0.2-1.3,0.6-2.2,1.2v-2.9c0.6-0.3,1.3-0.5,2-0.7c0.7-0.2,1.4-0.2,2-0.2
		c1.2,0,2.4,0.2,3.5,0.7c1.1,0.5,2,1.1,2.8,1.9c0.8,0.8,1.4,1.7,1.9,2.8c0.5,1,0.7,2.1,0.7,3.3c0,1.2-0.2,2.3-0.7,3.3
		c-0.5,1-1.1,2-1.9,2.8c-0.8,0.8-1.7,1.4-2.8,1.9c-1.1,0.5-2.2,0.7-3.5,0.7c-0.7,0-1.4-0.1-2-0.2c-0.7-0.2-1.3-0.4-2-0.7v-2.8
		c0.9,0.6,1.6,1,2.2,1.2c0.6,0.2,1.2,0.3,1.8,0.3c0.8,0,1.5-0.1,2.1-0.4c0.7-0.3,1.3-0.6,1.8-1.1c0.5-0.5,1-1.1,1.3-1.7
		c0.4-0.7,0.6-1.4,0.7-2.2h-5.6L21,22.4L21,22.4z"/>
	<path d="M69.4,11.4l0.1,1.1c0,0.4,0,0.7,0,0.9c-0.1,0.1-0.2,0.2-0.3,0.2c-0.1,0-0.2-0.1-0.3-0.2c-0.1-0.1-0.3-0.4-0.6-0.9
		c-0.6-0.9-1.2-1.5-1.8-1.8c-0.6-0.3-1.4-0.5-2.2-0.5c-2,0-3.7,0.7-4.8,2.2c-1.2,1.5-1.8,3.4-1.8,5.6c0,2.4,0.6,4.4,1.8,5.9
		s2.8,2.3,4.6,2.3c0.5,0,1-0.1,1.5-0.2c0.5-0.2,0.9-0.4,1.4-0.8c0.5-0.4,1-1.1,1.5-1.9c0.5-0.8,0.6-1.1,0.6-1
		c0.1-0.1,0.1-0.2,0.2-0.2c0.1,0,0.1,0,0.2,0c0.2,0,0.3,0.1,0.3,0.2c0.1,0.1,0.1,0.6,0,1.4l-0.1,0.9c0,0.5-0.2,0.8-0.4,1
		c-0.2,0.2-0.5,0.4-1,0.6c-0.8,0.3-1.5,0.5-2.2,0.7c-0.7,0.1-1.5,0.2-2.2,0.2c-2.6,0-4.9-0.8-6.7-2.4c-1.8-1.6-2.8-3.7-2.8-6.3
		c0-2.5,0.9-4.7,2.8-6.4c1.8-1.7,4.2-2.5,7-2.5c0.7,0,1.6,0.1,2.4,0.2c0.9,0.1,1.6,0.3,2.1,0.5c0.2,0.1,0.4,0.2,0.5,0.3
		C69.2,10.6,69.3,10.9,69.4,11.4L69.4,11.4z M73.5,9.8h10.6c0.3,0,0.6,0,0.7-0.1c0.1-0.1,0.3-0.2,0.4-0.4c0.1-0.3,0.2-0.4,0.3-0.5
		c0.1-0.1,0.2-0.1,0.3-0.1c0.2,0,0.3,0.1,0.3,0.2s0.1,0.3,0.1,0.7L86,11.8c-0.1,1.1-0.1,1.7-0.2,1.8c-0.1,0.1-0.2,0.1-0.3,0.1
		c-0.1,0-0.2,0-0.3-0.1c-0.1-0.1-0.1-0.2-0.2-0.3l-0.4-1c-0.2-0.5-0.4-0.9-0.8-1.1c-0.3-0.3-0.7-0.4-1.2-0.4h-2.2
		c-0.2,0-0.4,0-0.4,0.1s-0.1,0.2-0.1,0.4v12.3c0,0.8,0.1,1.4,0.3,1.7c0.2,0.3,0.6,0.5,1.3,0.5c0.5,0.1,0.8,0.1,0.8,0.2
		c0,0.1,0.1,0.1,0.1,0.3c0,0.1,0,0.2-0.1,0.3c-0.1,0.1-0.2,0.1-0.4,0.1c-0.4,0-0.9,0-1.7-0.1c-0.7,0-1.3-0.1-1.7-0.1s-0.9,0-1.7,0.1
		c-0.8,0-1.3,0.1-1.7,0.1c-0.2,0-0.3,0-0.4-0.1c-0.1-0.1-0.2-0.2-0.2-0.3c0-0.1,0-0.2,0.1-0.3c0.1,0,0.2-0.1,0.5-0.1
		c0.9-0.1,1.4-0.2,1.6-0.6c0.2-0.3,0.3-0.9,0.3-1.7V11.2c0-0.2-0.1-0.3-0.2-0.4c-0.1,0-0.5-0.1-1-0.1c-1.2,0-2,0.2-2.5,0.5
		c-0.5,0.3-1,0.9-1.4,1.6c-0.2,0.4-0.4,0.7-0.5,0.8c-0.1,0.1-0.2,0.1-0.3,0.1c-0.1,0-0.2,0-0.3-0.1c-0.1-0.1-0.1-0.2-0.1-0.3
		c0-0.1,0-0.2,0-0.3s0.1-0.3,0.1-0.5l0.9-3.2c0-0.2,0.1-0.3,0.2-0.4c0.1-0.1,0.2-0.1,0.3-0.1c0.1,0,0.2,0,0.3,0.1
		c0.1,0.1,0.1,0.2,0.1,0.5c0,0.2,0.1,0.3,0.2,0.4C73.1,9.8,73.3,9.8,73.5,9.8L73.5,9.8z M89.4,23.5V12.9c0-0.8-0.1-1.4-0.3-1.7
		c-0.2-0.3-0.6-0.5-1.2-0.5c-0.5-0.1-0.8-0.1-0.8-0.1c-0.1,0-0.1-0.1-0.1-0.3c0-0.2,0-0.3,0.1-0.3c0.1-0.1,0.2-0.1,0.4-0.1
		c0.4,0,0.9,0,1.7,0s1.3,0,1.6,0c0.1,0,0.3,0,0.5,0c0.2,0,0.8,0,1.8-0.1c0.3,0,0.6,0,0.9,0c0.3,0,0.6,0,0.9,0c2,0,3.6,0.4,4.6,1.3
		c1,0.9,1.6,2,1.6,3.4c0,1.4-0.5,2.6-1.5,3.5c-1,0.9-2.2,1.4-3.7,1.4c-0.4,0-0.8,0-1.2-0.1c-0.4-0.1-0.8-0.2-1.2-0.3
		c-0.5-0.2-0.7-0.2-0.8-0.2c0,0-0.1,0-0.1,0c-0.1,0-0.2,0-0.2,0.1c0,0-0.1,0.2-0.1,0.3v4.3c0,0.7,0.1,1.3,0.3,1.6
		c0.2,0.3,0.8,0.5,1.9,0.6c0.2,0,0.4,0,0.5,0.1c0.1,0.1,0.1,0.2,0.1,0.3c0,0.1,0,0.2-0.1,0.3c-0.1,0.1-0.2,0.1-0.4,0.1
		c-0.4,0-1,0-1.7-0.1c-0.8,0-1.3-0.1-1.7-0.1c-0.4,0-0.9,0-1.7,0.1c-0.8,0-1.3,0.1-1.7,0.1c-0.2,0-0.4,0-0.5-0.1
		c-0.1-0.1-0.1-0.2-0.1-0.3c0-0.1,0-0.2,0.1-0.3c0.1-0.1,0.2-0.1,0.4-0.1c0.7,0,1.2-0.2,1.4-0.4C89.3,25,89.4,24.4,89.4,23.5
		L89.4,23.5z M92.4,12.8v4.3c0,0.2,0,0.4,0.1,0.5c0,0.1,0.2,0.2,0.3,0.3c0.2,0.1,0.5,0.2,0.9,0.3c0.3,0.1,0.7,0.1,1,0.1
		c1.2,0,2.1-0.4,2.7-1.2s1-1.7,1-2.8c0-1.2-0.4-2.1-1.1-2.8c-0.7-0.6-1.7-1-3-1c-0.5,0-0.9,0.1-1.1,0.2c-0.3,0.1-0.5,0.3-0.6,0.5
		c-0.1,0.1-0.1,0.3-0.1,0.5C92.4,12.1,92.4,12.4,92.4,12.8L92.4,12.8z M112,27c-1.3,0-2.4-0.2-3.5-0.6c-1.1-0.4-2-0.9-2.8-1.7
		c-1-0.9-1.7-1.9-2.2-3.1c-0.5-1.2-0.7-2.3-0.7-3.6c0-1.2,0.2-2.4,0.7-3.5c0.5-1.1,1.2-2.1,2.2-3c0.8-0.7,1.7-1.3,2.8-1.6
		s2.2-0.6,3.5-0.6c1.3,0,2.5,0.2,3.5,0.6c1,0.4,1.9,1,2.7,1.7c1,0.9,1.7,1.9,2.2,3.1c0.5,1.2,0.7,2.3,0.7,3.5c0,1.2-0.2,2.4-0.7,3.5
		s-1.2,2.1-2.2,3c-0.8,0.7-1.7,1.2-2.8,1.6C114.4,26.8,113.2,27,112,27L112,27z M112.2,26.2c0.8,0,1.5-0.1,2.2-0.4
		c0.7-0.3,1.3-0.8,1.8-1.4c0.6-0.7,1.1-1.6,1.4-2.6c0.3-1,0.5-2,0.5-3.1c0-1.1-0.1-2.1-0.4-3.2c-0.3-1-0.7-2-1.3-2.8
		c-0.6-0.8-1.2-1.5-2-1.9s-1.6-0.6-2.6-0.6c-0.8,0-1.6,0.2-2.3,0.5c-0.7,0.3-1.3,0.8-1.8,1.3c-0.6,0.7-1.1,1.5-1.4,2.5
		c-0.3,1-0.5,2-0.5,3.2c0,1.2,0.1,2.3,0.4,3.3c0.3,1,0.7,1.9,1.2,2.7c0.6,0.8,1.3,1.5,2,1.9C110.3,26,111.2,26.2,112.2,26.2
		L112.2,26.2z M128.4,21.8l8-9.1v-0.1c0-0.7-0.1-1.2-0.4-1.5c-0.3-0.3-0.7-0.4-1.5-0.4c-0.2,0-0.3,0-0.4-0.1c-0.1,0-0.1-0.1-0.1-0.3
		s0-0.3,0.1-0.3c0.1-0.1,0.2-0.1,0.5-0.1c0.3,0,0.9,0,1.6,0.1c0.7,0,1.3,0.1,1.6,0.1c0.4,0,0.9,0,1.6-0.1c0.7,0,1.3-0.1,1.6-0.1
		c0.2,0,0.4,0,0.5,0.1c0.1,0.1,0.1,0.2,0.1,0.3c0,0.1,0,0.2-0.1,0.3c-0.1,0.1-0.2,0.1-0.4,0.1c-0.8,0.1-1.3,0.2-1.5,0.6
		c-0.2,0.3-0.3,0.9-0.3,1.7v10.6c0,0.8,0.1,1.4,0.3,1.7c0.2,0.3,0.7,0.5,1.5,0.6c0.3,0,0.4,0.1,0.5,0.1c0.1,0.1,0.1,0.2,0.1,0.3
		c0,0.1,0,0.3-0.2,0.3c-0.1,0.1-0.2,0.1-0.4,0.1c-0.4,0-0.9,0-1.6-0.1c-0.7,0-1.3-0.1-1.6-0.1c-0.4,0-0.9,0-1.6,0.1
		c-0.7,0-1.3,0.1-1.6,0.1c-0.2,0-0.4,0-0.4-0.1c-0.1-0.1-0.1-0.2-0.1-0.3c0-0.1,0-0.2,0.1-0.3c0.1-0.1,0.2-0.1,0.4-0.1
		c0.8-0.1,1.3-0.2,1.5-0.5c0.2-0.3,0.3-0.9,0.3-1.7v-9.3l-8,9.1v0.4c0,0.7,0.1,1.2,0.3,1.5c0.2,0.3,0.7,0.5,1.5,0.5
		c0.3,0,0.4,0.1,0.5,0.1c0.1,0.1,0.1,0.2,0.1,0.3c0,0.1-0.1,0.3-0.2,0.3c-0.1,0.1-0.3,0.1-0.4,0.1c-0.4,0-0.9,0-1.6-0.1
		c-0.7,0-1.3-0.1-1.6-0.1c-0.4,0-0.9,0-1.6,0.1c-0.7,0-1.3,0.1-1.6,0.1c-0.2,0-0.4,0-0.4-0.1c-0.1-0.1-0.1-0.2-0.1-0.3
		c0-0.1,0-0.2,0.1-0.3c0.1-0.1,0.2-0.1,0.4-0.1c0.8-0.1,1.3-0.2,1.5-0.5c0.2-0.3,0.3-0.9,0.3-1.7V12.8c0-0.8-0.1-1.4-0.3-1.7
		c-0.2-0.3-0.7-0.5-1.5-0.5c-0.2,0-0.3,0-0.4-0.1c-0.1,0-0.1-0.1-0.1-0.3c0-0.2,0-0.3,0.1-0.3c0.1-0.1,0.2-0.1,0.5-0.1
		c0.4,0,0.9,0,1.6,0.1c0.7,0,1.3,0.1,1.6,0.1c0.4,0,0.9,0,1.6-0.1c0.7,0,1.3-0.1,1.6-0.1c0.2,0,0.4,0,0.5,0.1
		c0.1,0.1,0.1,0.2,0.1,0.3c0,0.1,0,0.2-0.1,0.3c-0.1,0.1-0.2,0.1-0.4,0.1c-0.8,0.1-1.3,0.2-1.5,0.6c-0.2,0.3-0.3,0.9-0.3,1.7
		L128.4,21.8L128.4,21.8z M136.9,6c-0.6,1.2-1.2,2-1.9,2.6c-0.7,0.6-1.5,0.8-2.4,0.8c-0.9,0-1.7-0.2-2.4-0.7c-0.7-0.4-1-0.9-1-1.5
		c0-0.4,0.2-0.8,0.6-1.3c0.4-0.5,0.8-0.8,1.1-0.8c0.1,0,0.3,0,0.3,0.1c0.1,0.1,0.2,0.4,0.3,1.1c0.1,0.5,0.2,0.9,0.5,1.2
		s0.7,0.4,1.2,0.4c0.5,0,0.9-0.1,1.3-0.4c0.4-0.2,0.8-0.6,1.1-1.2c0.5-0.7,0.8-1,0.8-1.1c0.1,0,0.1-0.1,0.2-0.1c0,0,0.1,0,0.1,0
		c0,0,0.1,0,0.1,0c0.1,0,0.1,0.1,0.2,0.1c0,0.1,0.1,0.1,0.1,0.2c0,0.1,0,0.2,0,0.2C137,5.8,137,5.9,136.9,6L136.9,6z M151.4,17.1
		h3.4c0.3,0,0.5-0.1,0.6-0.2c0.1-0.1,0.2-0.3,0.2-0.5c0-0.6-0.2-1.4-0.5-2.2c-0.4-0.8-0.8-1.5-1.3-2.1c-0.6-0.7-1.3-1.2-1.9-1.5
		c-0.7-0.3-1.5-0.5-2.4-0.5c-1.1,0-1.9,0.2-2.6,0.7c-0.7,0.5-1.3,1.2-1.8,2.1c-0.1,0.2-0.2,0.4-0.3,0.4c-0.1,0.1-0.2,0.1-0.3,0.1
		c-0.2,0-0.3-0.1-0.4-0.2c-0.1-0.1-0.1-0.4,0-0.9l0.1-1.1c0.1-0.5,0.1-0.8,0.2-1c0.1-0.1,0.2-0.2,0.4-0.3c0.6-0.2,1.3-0.4,2.1-0.5
		c0.9-0.1,1.7-0.2,2.5-0.2c1.3,0,2.5,0.2,3.4,0.5c1,0.3,1.9,0.8,2.6,1.4c1.1,0.8,1.8,1.8,2.4,3s0.8,2.3,0.8,3.6
		c0,1.3-0.2,2.6-0.8,3.8c-0.5,1.2-1.2,2.2-2.1,3c-0.8,0.8-1.7,1.4-2.9,1.7c-1.1,0.4-2.4,0.6-3.8,0.6c-0.9,0-1.8-0.1-2.7-0.3
		c-0.9-0.2-1.7-0.5-2.3-0.9c-0.2-0.2-0.4-0.3-0.5-0.5c-0.1-0.2-0.1-0.4-0.2-0.8l-0.1-0.9c-0.1-0.8-0.1-1.2,0-1.4
		c0.1-0.1,0.2-0.2,0.4-0.2c0.1,0,0.2,0,0.3,0.1c0.1,0.1,0.3,0.4,0.6,1.1c0.4,0.9,1,1.6,1.8,2.2c0.8,0.5,1.7,0.8,2.7,0.8
		c1.1,0,2.1-0.2,3-0.7c0.9-0.5,1.6-1.2,2.2-2.1c0.4-0.6,0.7-1.2,0.9-1.9c0.2-0.7,0.3-1.6,0.3-2.6c0-0.4,0-0.7-0.1-0.8
		c-0.1-0.1-0.2-0.2-0.4-0.2h-3.4c-1,0-1.6,0.2-2,0.5c-0.3,0.3-0.6,0.9-0.8,1.7c-0.1,0.3-0.1,0.5-0.2,0.6c-0.1,0.1-0.2,0.1-0.3,0.1
		c-0.1,0-0.2,0-0.3-0.1c-0.1-0.1-0.1-0.3-0.1-0.8c0-0.1,0-0.1,0-0.2c0-0.1,0-0.3,0.1-0.7c0-0.3,0.1-0.5,0.1-0.7c0-0.2,0-0.4,0-0.6
		c0-0.3,0-0.6,0-1.1s0-0.7,0-0.9c0-0.4,0-0.6,0-0.7c0.1-0.1,0.2-0.1,0.3-0.1c0.1,0,0.2,0,0.3,0.1c0.1,0.1,0.2,0.2,0.2,0.4
		c0.3,0.8,0.6,1.2,0.9,1.4C150.3,17,150.8,17.1,151.4,17.1L151.4,17.1z M163.1,23.5V12.9c0-0.9-0.1-1.4-0.3-1.7
		c-0.2-0.3-0.7-0.5-1.5-0.5c-0.2,0-0.3,0-0.4-0.1c-0.1-0.1-0.1-0.2-0.1-0.3c0-0.2,0-0.3,0.1-0.3c0.1-0.1,0.3-0.1,0.7-0.1
		c0.3,0,0.8,0,1.5,0.1c0.7,0,1.2,0.1,1.5,0.1c0.3,0,0.8,0,1.5-0.1c0.7,0,1.2-0.1,1.5-0.1c0.4,0,0.6,0,0.7,0.1
		c0.1,0.1,0.1,0.2,0.1,0.3c0,0.1,0,0.2-0.1,0.3c-0.1,0.1-0.2,0.1-0.4,0.1c-0.8,0-1.3,0.2-1.5,0.5c-0.2,0.3-0.3,0.9-0.3,1.7v3.8
		c0,0.3,0,0.5,0.1,0.6c0.1,0.1,0.3,0.1,0.7,0.1h0.5c0.8,0,1.5-0.2,2-0.8c0.6-0.5,1-1.3,1.4-2.2l0.7-1.9c0.3-0.9,0.8-1.6,1.3-2.1
		c0.5-0.5,1.2-0.7,1.9-0.7c0.7,0,1.2,0.2,1.5,0.5c0.4,0.3,0.5,0.8,0.5,1.3c0,0.4-0.1,0.8-0.4,1.1c-0.3,0.3-0.6,0.4-1,0.4
		c-0.3,0-0.6-0.1-0.8-0.2c-0.2-0.1-0.4-0.4-0.6-0.7c-0.1-0.2-0.2-0.3-0.3-0.4c-0.1-0.1-0.2-0.1-0.3-0.1c-0.2,0-0.4,0.1-0.5,0.3
		c-0.1,0.2-0.3,0.6-0.6,1.3l-0.5,1.6c-0.3,0.8-0.6,1.5-1.1,1.9s-1,0.8-1.6,1v0.1c0.8,0,1.5,0.3,2.1,0.8c0.6,0.4,1.2,1.1,1.7,1.9
		l2.2,3.4c0.4,0.7,0.8,1.2,1.1,1.4c0.3,0.3,0.6,0.4,1,0.4c0.3,0,0.5,0,0.6,0.1c0.1,0,0.1,0.1,0.1,0.3c0,0.1,0,0.2-0.1,0.3
		c-0.1,0.1-0.2,0.1-0.4,0.1s-0.4,0-0.7,0c-0.3,0-0.6,0-0.7,0c-0.1,0-0.2,0-0.3,0c-0.1,0-0.2,0-0.3,0c-0.2,0-0.3,0-0.4,0
		s-0.1,0-0.1,0c-0.5,0-0.9-0.1-1.3-0.3c-0.4-0.2-0.8-0.7-1.2-1.5l-2.4-4.1c-0.5-0.9-1-1.5-1.5-1.9s-1-0.6-1.6-0.6
		c-0.2,0-0.4,0-0.5,0c-0.1,0-0.2,0-0.2,0.1c0,0,0,0.1-0.1,0.1c0,0,0,0.2,0,0.4v4.6c0,0.7,0.1,1.3,0.3,1.6c0.2,0.3,0.7,0.6,1.6,0.6
		c0.2,0,0.4,0,0.4,0.1c0.1,0.1,0.1,0.2,0.1,0.3s0,0.2-0.1,0.3c-0.1,0.1-0.3,0.1-0.5,0.1c-0.4,0-0.9,0-1.6-0.1
		c-0.7,0-1.3-0.1-1.6-0.1c-0.4,0-0.9,0-1.6,0.1c-0.7,0-1.3,0.1-1.6,0.1c-0.2,0-0.4,0-0.5-0.1c-0.1-0.1-0.2-0.2-0.2-0.3
		c0-0.1,0-0.2,0.1-0.3c0.1-0.1,0.2-0.1,0.5-0.1c0.8-0.1,1.3-0.2,1.5-0.5C163,24.9,163.1,24.3,163.1,23.5L163.1,23.5z M193.6,11.4
		l0.1,1.1c0,0.4,0,0.7,0,0.9c-0.1,0.1-0.2,0.2-0.3,0.2c-0.1,0-0.2-0.1-0.3-0.2c-0.1-0.1-0.3-0.4-0.6-0.9c-0.6-0.9-1.2-1.5-1.8-1.8
		c-0.6-0.3-1.4-0.5-2.2-0.5c-2,0-3.7,0.7-4.8,2.2c-1.2,1.5-1.8,3.4-1.8,5.6c0,2.4,0.6,4.4,1.8,5.9s2.8,2.3,4.6,2.3
		c0.5,0,1-0.1,1.5-0.2c0.5-0.2,0.9-0.4,1.4-0.8c0.5-0.4,1-1.1,1.5-1.9c0.5-0.8,0.6-1.1,0.6-1c0.1-0.1,0.1-0.2,0.2-0.2
		c0.1,0,0.1,0,0.2,0c0.2,0,0.3,0.1,0.3,0.2c0.1,0.1,0.1,0.6,0,1.4l-0.1,0.9c0,0.5-0.2,0.8-0.4,1c-0.2,0.2-0.5,0.4-1,0.6
		c-0.8,0.3-1.5,0.5-2.2,0.7c-0.7,0.1-1.5,0.2-2.2,0.2c-2.6,0-4.9-0.8-6.7-2.4c-1.8-1.6-2.8-3.7-2.8-6.3c0-2.5,0.9-4.7,2.8-6.4
		c1.8-1.7,4.2-2.5,7-2.5c0.7,0,1.6,0.1,2.4,0.2c0.9,0.1,1.6,0.3,2.1,0.5c0.2,0.1,0.4,0.2,0.5,0.3C193.5,10.6,193.5,10.9,193.6,11.4
		L193.6,11.4z M197.9,23.5V12.9c0-0.5,0-0.9-0.1-1.2c-0.1-0.2-0.1-0.4-0.3-0.6c-0.1-0.1-0.3-0.2-0.5-0.3c-0.2-0.1-0.5-0.1-0.9-0.1
		c-0.2,0-0.4-0.1-0.5-0.1c-0.1-0.1-0.1-0.2-0.1-0.3c0-0.1,0-0.2,0.1-0.3c0.1-0.1,0.2-0.1,0.5-0.1c0.4,0,0.9,0,1.6,0.1
		c0.7,0,1.3,0.1,1.6,0.1c0.5,0,1.1,0,2-0.1c0.9,0,1.6-0.1,2-0.1h2.9c0.4,0,1.1,0,2,0.1c0.9,0,1.6,0.1,2,0.1c0.4,0,0.9,0,1.6-0.1
		c0.7,0,1.3-0.1,1.6-0.1c0.2,0,0.4,0,0.5,0.1c0.1,0.1,0.1,0.2,0.1,0.3c0,0.1,0,0.2-0.1,0.3c-0.1,0.1-0.2,0.1-0.4,0.1
		c-0.4,0-0.7,0.1-0.9,0.1c-0.2,0.1-0.4,0.2-0.5,0.3c-0.1,0.2-0.2,0.4-0.3,0.6c-0.1,0.3-0.1,0.6-0.1,1.1v10.6c0,0.5,0,0.8,0.1,1.1
		c0.1,0.3,0.1,0.5,0.3,0.6c0.1,0.1,0.3,0.2,0.5,0.3c0.2,0.1,0.5,0.1,0.9,0.1c0.2,0,0.3,0,0.4,0.1c0.1,0.1,0.1,0.2,0.1,0.3
		c0,0.2,0,0.3-0.1,0.3c-0.1,0.1-0.2,0.1-0.5,0.1c-0.4,0-0.9,0-1.6-0.1c-0.7,0-1.3-0.1-1.6-0.1c-0.3,0-0.9,0-1.6,0.1
		c-0.7,0-1.3,0.1-1.6,0.1c-0.2,0-0.3,0-0.4-0.1c-0.1-0.1-0.1-0.2-0.1-0.3c0-0.1,0-0.2,0.1-0.3c0.1-0.1,0.2-0.1,0.4-0.1
		c0.5,0,0.8-0.1,1-0.2c0.2-0.1,0.4-0.2,0.5-0.3c0.1-0.1,0.2-0.3,0.3-0.6c0-0.2,0.1-0.6,0.1-1.2V12.1c0-0.5-0.2-0.9-0.5-1.1
		c-0.3-0.2-1-0.3-1.8-0.3h-3.2c-0.9,0-1.6,0.1-1.9,0.2c-0.4,0.2-0.5,0.5-0.5,1v11.4c0,0.5,0,0.8,0.1,1.1c0,0.3,0.1,0.5,0.3,0.6
		c0.1,0.1,0.3,0.2,0.5,0.3c0.2,0.1,0.6,0.1,1,0.1c0.2,0,0.3,0,0.4,0.1c0.1,0.1,0.1,0.2,0.1,0.3c0,0.2,0,0.3-0.1,0.3
		c-0.1,0.1-0.2,0.1-0.5,0.1c-0.4,0-0.9,0-1.6-0.1c-0.7,0-1.3-0.1-1.6-0.1c-0.4,0-0.9,0-1.6,0.1c-0.7,0-1.3,0.1-1.6,0.1
		c-0.2,0-0.3,0-0.4-0.1c-0.1-0.1-0.2-0.2-0.2-0.3c0-0.1,0-0.2,0.1-0.3c0.1-0.1,0.2-0.1,0.4-0.1c0.5,0,0.8-0.1,1-0.2
		c0.2-0.1,0.4-0.2,0.5-0.3c0.1-0.1,0.2-0.3,0.3-0.6C197.9,24.4,197.9,24,197.9,23.5L197.9,23.5z"/>
	<path d="M218.2,23.5V12.9c0-0.9-0.1-1.5-0.4-1.7c-0.2-0.3-0.7-0.4-1.5-0.5c-0.2,0-0.3,0-0.4-0.1c-0.1,0-0.1-0.1-0.1-0.3
		c0-0.2,0-0.3,0.1-0.3c0.1-0.1,0.3-0.1,0.5-0.1c0.3,0,0.8,0,1.5,0c0.6,0,1.2,0,1.8,0l3.9,0c0.6,0,1.4,0,2.3,0c1,0,1.6,0,1.9-0.1
		c0.3,0,0.6,0,0.7,0c0.1,0,0.1,0.2,0.1,0.4v0.5l0,1.2v1c0,0.2,0,0.4-0.1,0.5c-0.1,0.1-0.2,0.1-0.3,0.1c-0.1,0-0.2,0-0.3-0.1
		c-0.1-0.1-0.2-0.2-0.3-0.5c-0.1-0.4-0.3-0.7-0.5-1c-0.2-0.3-0.4-0.5-0.6-0.7c-0.3-0.2-0.7-0.4-1.1-0.5c-0.5-0.1-1.3-0.1-2.4-0.1
		c-0.8,0-1.4,0-1.6,0.1c-0.3,0.1-0.4,0.4-0.4,0.9v4.4c0,0.4,0.1,0.6,0.2,0.7c0.1,0.1,0.3,0.1,0.6,0.1h1.9c0.6,0,1-0.1,1.4-0.3
		c0.4-0.2,0.6-0.6,0.9-1.2c0.1-0.3,0.2-0.5,0.3-0.6c0.1-0.1,0.2-0.2,0.3-0.2c0.1,0,0.2,0,0.3,0.1c0.1,0.1,0.1,0.2,0.1,0.4
		c0,0.1,0,0.3,0,0.6c0,0.3-0.1,0.6-0.1,0.9c0,0.3,0,0.6,0,0.9c0,0.3,0,1,0.1,2.3c0,0.5,0,0.7,0,0.8c-0.1,0.1-0.2,0.1-0.3,0.1
		c-0.1,0-0.2,0-0.3-0.2c-0.1-0.1-0.2-0.4-0.4-1c-0.2-0.7-0.5-1.2-0.9-1.4c-0.4-0.2-1-0.3-1.9-0.3h-1.3c-0.3,0-0.4,0-0.6,0.1
		c-0.1,0.1-0.2,0.3-0.2,0.6v4.3c0,1,0.2,1.7,0.5,2.1c0.3,0.4,0.9,0.6,1.7,0.6h1.3c0.4,0,0.8,0,1.2-0.1c0.4-0.1,0.8-0.2,1.1-0.4
		c0.3-0.2,0.5-0.4,0.8-0.7c0.2-0.3,0.5-0.8,0.9-1.5c0.1-0.3,0.3-0.5,0.3-0.6c0.1-0.1,0.2-0.1,0.3-0.1c0.2,0,0.3,0.1,0.3,0.2
		c0,0.1,0,0.4,0,0.7l-0.2,0.8c0,0.2-0.1,0.3-0.1,0.3s-0.1,0.6-0.2,1.8c0,0.2-0.1,0.4-0.1,0.4c-0.1,0-0.4,0.1-1.1,0.1l-2.7,0
		c-1.4,0-2.4,0-3-0.1c-0.6,0-1.1,0-1.6,0c-0.5,0-1.1,0-2.1,0.1c-0.9,0-1.6,0.1-2.1,0.1c-0.2,0-0.4,0-0.5-0.1
		c-0.1-0.1-0.1-0.2-0.1-0.3c0-0.1,0-0.2,0.1-0.3c0.1-0.1,0.2-0.1,0.4-0.1c0.8-0.1,1.3-0.2,1.5-0.5C218.1,24.9,218.2,24.3,218.2,23.5
		L218.2,23.5z M233.5,23.5V12.9c0-0.8-0.1-1.4-0.3-1.7c-0.2-0.3-0.6-0.5-1.2-0.5c-0.5-0.1-0.8-0.1-0.8-0.1c-0.1,0-0.1-0.1-0.1-0.3
		c0-0.2,0-0.3,0.1-0.3c0.1-0.1,0.2-0.1,0.4-0.1c0.4,0,0.9,0,1.7,0s1.3,0,1.6,0c0.1,0,0.3,0,0.5,0c0.2,0,0.8,0,1.8-0.1
		c0.3,0,0.6,0,0.9,0c0.3,0,0.6,0,0.9,0c2,0,3.6,0.4,4.6,1.3c1,0.9,1.6,2,1.6,3.4c0,1.4-0.5,2.6-1.5,3.5c-1,0.9-2.2,1.4-3.7,1.4
		c-0.4,0-0.8,0-1.2-0.1c-0.4-0.1-0.8-0.2-1.2-0.3c-0.5-0.2-0.7-0.2-0.8-0.2c0,0-0.1,0-0.1,0c-0.1,0-0.2,0-0.2,0.1
		c0,0-0.1,0.2-0.1,0.3v4.3c0,0.7,0.1,1.3,0.3,1.6c0.2,0.3,0.8,0.5,1.9,0.6c0.2,0,0.4,0,0.5,0.1c0.1,0.1,0.1,0.2,0.1,0.3
		c0,0.1,0,0.2-0.1,0.3c-0.1,0.1-0.2,0.1-0.4,0.1c-0.4,0-1,0-1.7-0.1c-0.8,0-1.3-0.1-1.7-0.1c-0.4,0-0.9,0-1.7,0.1
		c-0.8,0-1.3,0.1-1.7,0.1c-0.2,0-0.4,0-0.5-0.1c-0.1-0.1-0.1-0.2-0.1-0.3c0-0.1,0-0.2,0.1-0.3c0.1-0.1,0.2-0.1,0.4-0.1
		c0.7,0,1.2-0.2,1.4-0.4C233.4,25,233.5,24.4,233.5,23.5L233.5,23.5z M236.5,12.8v4.3c0,0.2,0,0.4,0.1,0.5c0,0.1,0.2,0.2,0.3,0.3
		c0.2,0.1,0.5,0.2,0.9,0.3s0.7,0.1,1,0.1c1.2,0,2.1-0.4,2.7-1.2c0.6-0.8,1-1.7,1-2.8c0-1.2-0.4-2.1-1.1-2.8c-0.7-0.6-1.7-1-3-1
		c-0.5,0-0.9,0.1-1.1,0.2c-0.3,0.1-0.5,0.3-0.6,0.5c-0.1,0.1-0.1,0.3-0.1,0.5C236.5,12.1,236.5,12.4,236.5,12.8L236.5,12.8z
		 M248.8,9.8h10.6c0.3,0,0.6,0,0.7-0.1c0.1-0.1,0.3-0.2,0.4-0.4c0.1-0.3,0.2-0.4,0.3-0.5c0.1-0.1,0.2-0.1,0.3-0.1
		c0.2,0,0.3,0.1,0.3,0.2c0.1,0.1,0.1,0.3,0.1,0.7l-0.1,2.2c-0.1,1.1-0.1,1.7-0.2,1.8c-0.1,0.1-0.2,0.1-0.3,0.1c-0.1,0-0.2,0-0.3-0.1
		c-0.1-0.1-0.1-0.2-0.2-0.3l-0.4-1c-0.2-0.5-0.4-0.9-0.8-1.1c-0.3-0.3-0.7-0.4-1.2-0.4h-2.2c-0.2,0-0.4,0-0.4,0.1
		c-0.1,0.1-0.1,0.2-0.1,0.4v12.3c0,0.8,0.1,1.4,0.3,1.7c0.2,0.3,0.6,0.5,1.3,0.5c0.5,0.1,0.8,0.1,0.8,0.2c0,0.1,0.1,0.1,0.1,0.3
		c0,0.1,0,0.2-0.1,0.3c-0.1,0.1-0.2,0.1-0.4,0.1c-0.4,0-0.9,0-1.7-0.1c-0.7,0-1.3-0.1-1.7-0.1c-0.4,0-0.9,0-1.7,0.1
		c-0.8,0-1.3,0.1-1.7,0.1c-0.2,0-0.3,0-0.4-0.1c-0.1-0.1-0.2-0.2-0.2-0.3c0-0.1,0-0.2,0.1-0.3c0.1,0,0.2-0.1,0.5-0.1
		c0.9-0.1,1.4-0.2,1.6-0.6c0.2-0.3,0.3-0.9,0.3-1.7V11.2c0-0.2-0.1-0.3-0.2-0.4c-0.1,0-0.5-0.1-1-0.1c-1.2,0-2,0.2-2.5,0.5
		c-0.5,0.3-1,0.9-1.4,1.6c-0.2,0.4-0.4,0.7-0.5,0.8c-0.1,0.1-0.2,0.1-0.3,0.1c-0.1,0-0.2,0-0.3-0.1c-0.1-0.1-0.1-0.2-0.1-0.3
		c0-0.1,0-0.2,0-0.3c0-0.1,0.1-0.3,0.1-0.5l0.9-3.2c0-0.2,0.1-0.3,0.2-0.4c0.1-0.1,0.2-0.1,0.3-0.1c0.1,0,0.2,0,0.3,0.1
		c0.1,0.1,0.1,0.2,0.1,0.5c0,0.2,0.1,0.3,0.2,0.4C248.4,9.8,248.6,9.8,248.8,9.8L248.8,9.8z"/>
</g>
</svg>
