<?xml version="1.0" encoding="utf-8"?>
<!-- Generator: Adobe Illustrator 23.0.1, SVG Export Plug-In . SVG Version: 6.00 Build 0)  -->
<svg version="1.1" xmlns="http://www.w3.org/2000/svg" xmlns:xlink="http://www.w3.org/1999/xlink" x="0px" y="0px"
	 viewBox="0 0 14 12" style="enable-background:new 0 0 14 12;" xml:space="preserve">
<g id="Слой_1">
</g>
<g id="Layer_1">
	<g>
		<g>
			<path d="M13.8,5.5L8.7,0.4C8.6,0.3,8.4,0.2,8.2,0.2C8,0.2,7.8,0.3,7.6,0.4L7.2,0.9C7,1,7,1.2,7,1.4C7,1.6,7,1.8,7.2,2l2.9,3H0.8
				C0.3,4.9,0,5.2,0,5.7v0.6c0,0.4,0.3,0.8,0.8,0.8h9.4l-3,3C7,10.2,7,10.4,7,10.6C7,10.8,7,11,7.2,11.1l0.5,0.5
				c0.1,0.1,0.3,0.2,0.5,0.2c0.2,0,0.4-0.1,0.5-0.2l5.1-5.1C13.9,6.4,14,6.2,14,6C14,5.8,13.9,5.6,13.8,5.5z"/>
		</g>
	</g>
</g>
</svg>
