<?xml version="1.0" encoding="utf-8"?>
<!-- Generator: Adobe Illustrator 23.0.1, SVG Export Plug-In . SVG Version: 6.00 Build 0)  -->
<svg version="1.1" id="Слой_1" xmlns="http://www.w3.org/2000/svg" xmlns:xlink="http://www.w3.org/1999/xlink" x="0px" y="0px"
	 viewBox="0 0 24 20" style="enable-background:new 0 0 24 20;" xml:space="preserve">
<path d="M12,13.6c0.4,0,0.7-0.3,0.7-0.7V12c0-0.4-0.3-0.7-0.7-0.7c-0.4,0-0.7,0.3-0.7,0.7v0.9C11.3,13.3,11.6,13.6,12,13.6z"/>
<path d="M1.7,7C1.9,7.1,2,7.2,2.2,7.2c0.2,0,0.4-0.1,0.5-0.2C3,6.7,3,6.3,2.7,6L1.2,4.5c-0.3-0.3-0.7-0.3-1,0c-0.3,0.3-0.3,0.7,0,1
	L1.7,7z"/>
<path d="M21.8,7.2c0.2,0,0.4-0.1,0.5-0.2l1.5-1.5c0.3-0.3,0.3-0.7,0-1c-0.3-0.3-0.7-0.3-1,0L21.2,6c-0.3,0.3-0.3,0.7,0,1
	C21.4,7.1,21.6,7.2,21.8,7.2z"/>
<path d="M12,3.5c0.4,0,0.7-0.3,0.7-0.7V0.7C12.7,0.3,12.4,0,12,0c-0.4,0-0.7,0.3-0.7,0.7v2.1C11.3,3.2,11.6,3.5,12,3.5z"/>
<path d="M23.9,12.9c0.1-0.2,0.1-0.6,0-0.8c-0.1-0.1-1.4-1.8-3.4-3.5c-1.2-1-2.5-1.8-3.7-2.4c-1.6-0.7-3.2-1.1-4.7-1.1
	c-1.5,0-3.1,0.4-4.7,1.1C6.1,6.8,4.8,7.6,3.6,8.6c-2.1,1.7-3.4,3.4-3.4,3.5c-0.2,0.2-0.2,0.6,0,0.8c0.1,0.1,1.3,1.8,3.4,3.5
	c1.2,1,2.5,1.8,3.7,2.4C8.9,19.6,10.5,20,12,20c1.5,0,3.1-0.4,4.7-1.1c1.2-0.6,2.5-1.4,3.7-2.4C22.5,14.7,23.8,13,23.9,12.9
	C23.9,12.9,23.9,12.9,23.9,12.9z M4.5,9.7C6.3,8.2,9,6.5,12,6.5c3,0,5.7,1.7,7.5,3.2c1.3,1,2.2,2.1,2.8,2.7c-0.3,0.2-0.7,0.2-1,0.2
	c-0.6-0.1-1-0.4-1.3-0.6c-0.5-0.5-1-0.9-1.4-1.3c-2.9-2.3-5.1-2.8-6.6-2.8c-2.6,0-5,1.5-6.6,2.8c-0.5,0.4-1,0.8-1.5,1.3
	c-0.5,0.5-1,0.6-1.5,0.6c-0.3,0-0.5-0.1-0.7-0.2C2.3,11.7,3.2,10.7,4.5,9.7z M12,9.4c1.7,0,3.1,1.4,3.1,3.1c0,1.7-1.4,3.1-3.1,3.1
	s-3.1-1.4-3.1-3.1C8.9,10.8,10.3,9.4,12,9.4z M12,18.6c-3,0-5.7-1.7-7.5-3.2C3.9,14.9,3.4,14.4,3,14c0.7-0.1,1.4-0.4,2-1
	c0,0,0,0,0,0c0.4-0.4,0.9-0.9,1.4-1.2c0.4-0.4,0.9-0.7,1.5-1.1c-0.2,0.6-0.4,1.2-0.4,1.8c0,2.5,2,4.6,4.5,4.6c2.5,0,4.5-2,4.5-4.6
	c0-0.6-0.1-1.3-0.4-1.8c0.5,0.3,1,0.7,1.5,1.1c0.5,0.4,0.9,0.8,1.4,1.2c0,0,0,0,0,0c0.4,0.4,1.1,0.8,2,0.9
	C19.1,15.9,15.8,18.6,12,18.6z"/>
</svg>
