<?xml version="1.0" encoding="utf-8"?>
<!-- Generator: Adobe Illustrator 23.0.1, SVG Export Plug-In . SVG Version: 6.00 Build 0)  -->
<svg version="1.1" id="Слой_1" xmlns="http://www.w3.org/2000/svg" xmlns:xlink="http://www.w3.org/1999/xlink" x="0px" y="0px"
	 viewBox="0 0 512 512" style="enable-background:new 0 0 512 512;" xml:space="preserve">
<title>028 - Earthquake Cover</title>
<desc>Created with Sketch.</desc>
<g id="Page-1">
	<g>
		<path id="Shape" d="M267.7,119.6l16.7,3.4c1.1,0.2,2.3,0.3,3.4,0.3c8.1,0,15.1-5.7,16.7-13.7l6.8-33.4c1.9-9.2-4.1-18.2-13.3-20.1
			l-16.7-3.4c-4.4-0.9-9.1,0-12.8,2.5c-3.8,2.5-6.4,6.4-7.3,10.8l-6.8,33.4c-0.9,4.4,0,9.1,2.5,12.8
			C259.3,116.1,263.2,118.7,267.7,119.6L267.7,119.6z M277.9,69.4l16.7,3.4l-6.8,33.5l-16.7-3.4L277.9,69.4z"/>
		<path d="M334.6,133.2l16.7,3.4c9.2,1.9,18.2-4.1,20.1-13.3l6.8-33.5c1.9-9.2-4.1-18.2-13.3-20.1l-16.7-3.4
			c-4.4-0.9-9.1,0-12.8,2.5c-3.8,2.5-6.4,6.4-7.3,10.8l-6.8,33.4C319.4,122.3,325.3,131.4,334.6,133.2z M344.8,83.1l16.7,3.4
			l-6.8,33.5l-16.7-3.4L344.8,83.1z"/>
		<path d="M401.5,146.9l16.7,3.4c1.1,0.2,2.3,0.3,3.4,0.3c8.1,0,15.1-5.7,16.7-13.7l6.8-33.5c0.9-4.4,0-9-2.5-12.8
			c-2.5-3.8-6.4-6.4-10.8-7.3L415.1,80c-9.2-1.9-18.2,4.1-20.1,13.3l-6.8,33.4c-0.9,4.4,0,9.1,2.5,12.8
			C393.1,143.4,397,146,401.5,146.9z M411.7,96.7l16.7,3.4l-6.8,33.4l-16.7-3.4L411.7,96.7z"/>
		<path d="M250.6,203.2l16.7,3.4c9.2,1.9,18.2-4.1,20.1-13.3l6.8-33.4c0.9-4.4,0-9-2.5-12.8c-2.5-3.8-6.4-6.4-10.8-7.3l-16.7-3.4
			c-4.4-0.9-9.1,0-12.8,2.5c-3.8,2.5-6.4,6.4-7.3,10.8l-6.8,33.5C235.5,192.3,241.4,201.3,250.6,203.2z M260.9,153.1l16.7,3.4
			l-6.8,33.5l-16.7-3.4L260.9,153.1z"/>
		<path d="M304.2,196.7c-1.9,9.2,4.1,18.2,13.3,20.1l16.7,3.4c9.2,1.9,18.2-4.1,20.1-13.3l6.8-33.4c1.9-9.2-4.1-18.2-13.3-20.1
			l-16.7-3.4c-4.4-0.9-9.1,0-12.8,2.5s-6.4,6.4-7.3,10.8L304.2,196.7z M327.8,166.7l16.7,3.4l-6.8,33.5l-16.7-3.4L327.8,166.7z"/>
		<path d="M371.1,210.4c-1.9,9.2,4.1,18.2,13.3,20.1l16.7,3.4c1.1,0.2,2.3,0.3,3.4,0.3c8.1,0,15.1-5.7,16.7-13.7l6.8-33.4
			c0.9-4.4,0-9.1-2.5-12.8c-2.5-3.8-6.4-6.4-10.8-7.3l-16.7-3.4c-9.2-1.9-18.2,4.1-20.1,13.3L371.1,210.4z M394.7,180.3l16.7,3.4
			l-6.8,33.5l-16.7-3.4L394.7,180.3z"/>
		<path d="M166.7,273.2l16.7,3.4c1.1,0.2,2.3,0.3,3.4,0.3c8.1,0,15.1-5.7,16.7-13.7l6.8-33.4c1.9-9.2-4.1-18.2-13.3-20.1l-16.7-3.4
			c-4.4-0.9-9,0-12.8,2.5c-3.8,2.5-6.4,6.4-7.3,10.8l-6.8,33.4C151.5,262.3,157.4,271.3,166.7,273.2L166.7,273.2z M176.9,223
			l16.7,3.4l-6.8,33.5l-16.7-3.4L176.9,223z"/>
		<path d="M233.6,286.8l16.7,3.4c1.1,0.2,2.3,0.3,3.4,0.3c8.1,0,15.1-5.7,16.7-13.7l6.8-33.5c1.9-9.2-4.1-18.2-13.3-20.1l-16.7-3.4
			c-4.4-0.9-9.1,0-12.8,2.5c-3.8,2.5-6.4,6.4-7.3,10.8l-6.8,33.5c-0.9,4.4,0,9.1,2.5,12.8C225.3,283.3,229.2,285.9,233.6,286.8z
			 M243.8,236.7l16.7,3.4l-6.8,33.4l-16.7-3.4L243.8,236.7z"/>
		<path d="M330.8,237l-16.7-3.4c-9.2-1.9-18.2,4.1-20.1,13.3l-6.8,33.4c-0.9,4.4,0,9,2.5,12.8c2.5,3.8,6.4,6.4,10.8,7.3l16.7,3.4
			c1.1,0.2,2.3,0.3,3.4,0.3c8.1,0,15.1-5.7,16.7-13.7l6.8-33.5C346,247.9,340.1,238.9,330.8,237z M320.6,287.2l-16.7-3.4l6.8-33.4
			l16.7,3.4L320.6,287.2z"/>
		<path d="M397.7,250.6l-16.7-3.4c-4.4-0.9-9,0-12.8,2.5c-3.8,2.5-6.4,6.4-7.3,10.8l-6.8,33.4c-0.9,4.4,0,9.1,2.5,12.8
			c2.5,3.8,6.4,6.4,10.8,7.3l16.7,3.4c1.1,0.2,2.3,0.3,3.4,0.3c8.1,0,15.1-5.7,16.7-13.7l6.8-33.4
			C412.9,261.5,406.9,252.5,397.7,250.6L397.7,250.6z M387.5,300.8l-16.7-3.4l6.8-33.5l16.7,3.4L387.5,300.8z"/>
		<path d="M149.7,356.8l16.7,3.4c1.1,0.2,2.3,0.4,3.4,0.3c8.1,0,15.1-5.7,16.7-13.7l6.8-33.5c1.9-9.2-4.1-18.2-13.3-20.1l-16.7-3.4
			c-4.4-0.9-9.1,0-12.8,2.5c-3.8,2.5-6.4,6.4-7.3,10.8l-6.8,33.5C134.5,345.9,140.4,354.9,149.7,356.8z M159.9,306.6l16.7,3.4
			l-6.8,33.5l-16.7-3.4L159.9,306.6z"/>
		<path d="M203.2,350.3c-1.9,9.2,4.1,18.2,13.3,20.1l16.7,3.4c1.1,0.2,2.3,0.3,3.4,0.3c8.1,0,15.1-5.7,16.7-13.7l6.8-33.4
			c0.9-4.4,0-9-2.5-12.8c-2.5-3.8-6.4-6.4-10.8-7.3l-16.7-3.4c-4.4-0.9-9.1,0-12.8,2.5c-3.8,2.5-6.4,6.4-7.3,10.8L203.2,350.3z
			 M226.8,320.3l16.7,3.4l-6.8,33.5l-16.7-3.4L226.8,320.3z"/>
		<path d="M17.1,512h477.9c9.4,0,17.1-7.6,17.1-17.1V294.2c0-6.8-3.7-13-9.7-16.1s-13.2-2.8-18.8,0.9l-18.1,12c-1,0.7-2,1.4-2.8,2.3
			l-26.8,26.8l47.8-234.8c1.4-6.7,0.1-13.6-3.7-19.3c-3.7-5.7-9.6-9.6-16.3-11L196.2,0.5c-13.9-2.8-27.4,6.1-30.2,20l-1.8,9.1
			L97.3,0.7c-2.2-0.9-4.6-0.9-6.8,0L5.1,37.5C2,38.9,0,42,0,45.4v101c0.1,17,8.4,32.9,22.3,42.8l66.7,47.5c3,2.1,6.9,2.1,9.9,0
			l27-19.2l-22.9,112.7c-4.5-3.7-10.2-5.8-16.1-5.8H65.9c-2,0-3.9-0.7-5.5-2L42,306.9c-7.6-6.4-18.3-7.8-27.2-3.5
			C5.7,307.6,0,316.6,0,326.6v168.4C0,504.4,7.6,512,17.1,512z M474.9,305.2l18.1-12.1c0.4-0.2,0.9-0.3,1.3-0.1
			c0.4,0.2,0.7,0.6,0.7,1.1v200.7H321l-10-20c-4.3-8.7-13.2-14.2-22.9-14.1H279c-1.9,0-3.8-0.7-5.3-1.9l-27.3-21.9l49.4-63.3
			l52.1-22.3c0.4-0.2,0.9-0.1,1.3,0.2l31.3,25c7.3,5.8,17.8,5.2,24.4-1.3L474.9,305.2z M307.8,350.1l-18.8,8
			c-0.1,0.1-0.2,0.2-0.4,0.2l5-24.4l16.7,3.4L307.8,350.1z M194,139.4l16.7,3.4l-6.8,33.5l-16.7-3.4L194,139.4z M93.9,219.2
			l-61.7-43.9c-9.4-6.6-15-17.4-15.1-28.9V51l76.8-33.2L170.7,51v95.4c-0.1,11.5-5.7,22.3-15.1,28.9L134,190.6
			c-0.2,0.1-0.3,0.2-0.5,0.4L93.9,219.2z M165.5,189.1c2.7-2,5.3-4.2,7.6-6.7c2.5,3.7,6.3,6.2,10.7,7.1l16.7,3.4
			c1.1,0.2,2.3,0.4,3.4,0.3c8.1,0,15.1-5.7,16.7-13.7l6.8-33.5c1.9-9.2-4.1-18.2-13.3-20.1l-16.7-3.4c-3.2-0.7-6.6-0.4-9.7,0.9V93.5
			c1.5,6.4,6.6,11.2,13.1,12.5l16.7,3.4c1.1,0.2,2.3,0.3,3.5,0.3c8.1,0,15.1-5.7,16.7-13.7l6.8-33.4c1.9-9.2-4.1-18.2-13.3-20.1
			l-16.7-3.4c-9.2-1.9-18.2,4.1-20.1,13.3l-6.6,32.2V45.4c0-3.4-2-6.5-5.1-7.8l-2.4-1.1l2.6-12.6c1-4.6,5.5-7.6,10.1-6.7l267.5,54.5
			c2.2,0.4,4.2,1.8,5.5,3.7c1.2,1.9,1.7,4.2,1.2,6.4L414,342l-21.3,21.3c-0.5,0.5-1.2,0.5-1.7,0.1l-31.3-25
			c-5.3-4.2-12.4-5.2-18.6-2.6l-14.3,6.1l0.2-1.2c1.8-9.2-4.1-18.2-13.3-20.1l-16.7-3.4c-4.4-0.9-9.1,0-12.8,2.5
			c-3.8,2.5-6.4,6.4-7.3,10.8l-8.5,41.8c-0.5,2.2,0,4.5,1.2,6.4c0.1,0.1,0.2,0.2,0.2,0.2l-35.4,45.5l-14.5-29
			c-6.3-12.6-21.7-17.7-34.3-11.4l-8.9,4.4c-3,1.5-6.7,1.1-9.3-1.1l-42-35l-8.2-8.1l28.8-141.3L165.5,189.1z M204.2,89.2l6.8-33.4
			l16.7,3.4l-6.8,33.4L204.2,89.2z M17.1,326.6c0-3.3,1.9-6.3,4.9-7.7c1.2-0.5,2.4-0.8,3.7-0.9c2,0,3.9,0.7,5.3,2l18.5,15.4
			c4.6,3.8,10.4,6,16.4,6h20.9c2.3,0,4.4,0.9,6,2.5l20.1,20.1c0.5,0.5,1.1,1,1.7,1.5l42,35c7.8,6.5,18.7,7.8,27.8,3.2l8.9-4.4
			c4.2-2.1,9.3-0.3,11.4,3.9l16.3,32.6c1.7,3.3,4,6.2,6.9,8.5l35.1,28c4.5,3.6,10.2,5.6,16,5.6h9.1c3.2,0,6.2,1.8,7.6,4.7l6.2,12.3
			H17.1L17.1,326.6z"/>
		<path d="M96.8,388.7l-15.8-7.9c-8.2-4.1-18-3.5-25.7,1.6L37.9,394c-2.5,1.7-4,4.6-3.8,7.7s2,5.7,4.7,7.1s6,1.1,8.5-0.6l17.4-11.6
			c2.5-1.7,5.8-1.9,8.5-0.5l15.8,7.9c2.9,1.4,4.7,4.4,4.7,7.6v15.1c0,4.7,3.8,8.5,8.5,8.5c4.7,0,8.5-3.8,8.5-8.5v-15.1
			C111,401.9,105.5,393,96.8,388.7z"/>
		<path d="M191.5,444.6l-13.5-6.7c-3.6-1.8-7.5-2.7-11.4-2.7h-7.9c-5.1,0-10,1.5-14.2,4.3l-21.3,14.2c-3.9,2.6-5,7.9-2.4,11.8
			c2.6,3.9,7.9,5,11.8,2.4l21.3-14.2c1.4-0.9,3-1.4,4.7-1.4h7.9c1.3,0,2.6,0.3,3.8,0.9l13.5,6.7c2.7,1.4,6,1.2,8.5-0.5
			c2.5-1.7,4-4.6,3.8-7.6C196.1,448.7,194.3,445.9,191.5,444.6L191.5,444.6z"/>
		<path d="M386.3,430.3c-2.6-7.6-8.6-13.6-16.2-16.2l-9.6-3.2c-7.5-2.5-15.7-1.4-22.3,3l-18.7,12.4c-3.9,2.6-5,7.9-2.4,11.8
			c2.6,3.9,7.9,5,11.8,2.4l18.7-12.4c2.2-1.5,4.9-1.8,7.4-1l9.6,3.2c2.5,0.8,4.6,2.8,5.4,5.4l5.8,17.5c1.5,4.5,6.3,6.9,10.8,5.4
			c4.5-1.5,6.9-6.3,5.4-10.8L386.3,430.3z"/>
		<path d="M418.1,435.2c2.3,0,4.4-0.9,6-2.5l20.6-20.6c1.6-1.6,3.8-2.5,6-2.5h2.9c2.3,0,4.4,0.9,6,2.5l3.5,3.5
			c3.3,3.2,8.7,3.2,12-0.1c3.3-3.3,3.3-8.6,0.1-12l-3.5-3.5c-4.8-4.8-11.3-7.5-18.1-7.5h-2.9c-6.8,0-13.3,2.7-18.1,7.5l-20.6,20.6
			c-2.4,2.4-3.2,6.1-1.8,9.3C411.6,433.1,414.7,435.2,418.1,435.2z"/>
		<path d="M469.3,443.7h-10c-6.8,0-13.3,2.7-18.1,7.5l-12.1,12.1c-2.2,2.1-3.1,5.3-2.3,8.3c0.8,3,3.1,5.3,6.1,6.1s6.2-0.1,8.3-2.3
			l12.1-12.1c1.6-1.6,3.8-2.5,6-2.5h10c4.7,0,8.5-3.8,8.5-8.5S474,443.7,469.3,443.7z"/>
		<circle id="Oval" cx="68.3" cy="452.3" r="8.5"/>
		<circle cx="42.7" cy="358.4" r="8.5"/>
		<circle cx="221.9" cy="469.3" r="8.5"/>
		<circle cx="349.9" cy="469.3" r="8.5"/>
		<circle cx="460.8" cy="358.4" r="8.5"/>
		<circle cx="290.1" cy="426.7" r="8.5"/>
		<path d="M150.4,67.1c-1.8-1.4-4-2.1-6.3-1.8c-2.3,0.2-4.3,1.4-5.7,3.2l-63.1,78.9l-27.5-20.6c-3.8-2.8-9.1-2.1-11.9,1.7
			c-2.8,3.8-2.1,9.1,1.7,11.9l34.1,25.6c3.7,2.8,8.9,2.1,11.8-1.5l68.3-85.3c1.4-1.8,2.1-4,1.8-6.3
			C153.3,70.6,152.2,68.5,150.4,67.1z"/>
	</g>
</g>
</svg>
