<?xml version="1.0" encoding="utf-8"?>
<!-- Generator: Adobe Illustrator 23.0.1, SVG Export Plug-In . SVG Version: 6.00 Build 0)  -->
<svg version="1.1" id="Layer_1" xmlns="http://www.w3.org/2000/svg" xmlns:xlink="http://www.w3.org/1999/xlink" x="0px" y="0px"
	 viewBox="0 0 512 512" style="enable-background:new 0 0 512 512;" xml:space="preserve">
<g id="XMLID_1000_">
	<g id="XMLID_144_">
		<path id="XMLID_149_" d="M176,189.5c-5.5,0-10,4.5-10,10v20.7c0,5.5,4.5,10,10,10s10-4.5,10-10v-20.7
			C186,194,181.5,189.5,176,189.5z"/>
		<path id="XMLID_666_" d="M216,189.5c-5.5,0-10,4.5-10,10v20.7c0,5.5,4.5,10,10,10s10-4.5,10-10v-20.7
			C226,194,221.5,189.5,216,189.5z"/>
		<path id="XMLID_1082_" d="M256,189.5c-5.5,0-10,4.5-10,10v20.7c0,5.5,4.5,10,10,10c5.5,0,10-4.5,10-10v-20.7
			C266,194,261.5,189.5,256,189.5z"/>
		<path id="XMLID_1380_" d="M296,189.5c-5.5,0-10,4.5-10,10v20.7c0,5.5,4.5,10,10,10s10-4.5,10-10v-20.7
			C306,194,301.5,189.5,296,189.5z"/>
		<path id="XMLID_1437_" d="M336,189.5c-5.5,0-10,4.5-10,10v20.7c0,5.5,4.5,10,10,10s10-4.5,10-10v-20.7
			C346,194,341.5,189.5,336,189.5z"/>
		<path id="XMLID_1438_" d="M116,452.2c-2.6,0-5.2,1.1-7.1,2.9c-1.9,1.9-2.9,4.4-2.9,7.1c0,2.6,1.1,5.2,2.9,7.1
			c1.9,1.9,4.4,2.9,7.1,2.9s5.2-1.1,7.1-2.9s2.9-4.4,2.9-7.1c0-2.6-1.1-5.2-2.9-7.1C121.2,453.2,118.6,452.2,116,452.2z"/>
		<path id="XMLID_1439_" d="M116,369.5c-5.5,0-10,4.5-10,10v43.3c0,5.5,4.5,10,10,10s10-4.5,10-10v-43.3
			C126,374,121.5,369.5,116,369.5z"/>
		<path id="XMLID_1455_" d="M172,369.5c-5.5,0-10,4.5-10,10v82.7c0,5.5,4.5,10,10,10s10-4.5,10-10v-82.7
			C182,374,177.5,369.5,172,369.5z"/>
		<path id="XMLID_1456_" d="M228,369.5c-5.5,0-10,4.5-10,10v82.7c0,5.5,4.5,10,10,10s10-4.5,10-10v-82.7
			C238,374,233.5,369.5,228,369.5z"/>
		<path id="XMLID_1471_" d="M284,369.5c-5.5,0-10,4.5-10,10v82.7c0,5.5,4.5,10,10,10s10-4.5,10-10v-82.7
			C294,374,289.5,369.5,284,369.5z"/>
		<path id="XMLID_1480_" d="M340,369.5c-5.5,0-10,4.5-10,10v82.7c0,5.5,4.5,10,10,10s10-4.5,10-10v-82.7
			C350,374,345.5,369.5,340,369.5z"/>
		<path id="XMLID_1584_" d="M396,369.5c-2.6,0-5.2,1.1-7.1,2.9c-1.9,1.9-2.9,4.4-2.9,7.1c0,2.6,1.1,5.2,2.9,7.1
			c1.9,1.9,4.4,2.9,7.1,2.9s5.2-1.1,7.1-2.9c1.9-1.9,2.9-4.4,2.9-7.1c0-2.6-1.1-5.2-2.9-7.1C401.2,370.6,398.6,369.5,396,369.5z"/>
		<path id="XMLID_1585_" d="M396,409.5c-5.5,0-10,4.5-10,10v42.7c0,5.5,4.5,10,10,10s10-4.5,10-10v-42.7
			C406,414,401.5,409.5,396,409.5z"/>
		<path id="XMLID_1598_" d="M156,273c-5.5,0-10,4.5-10,10v20.7c0,5.5,4.5,10,10,10s10-4.5,10-10V283C166,277.5,161.5,273,156,273z"
			/>
		<path id="XMLID_1599_" d="M196,273c-5.5,0-10,4.5-10,10v20.7c0,5.5,4.5,10,10,10s10-4.5,10-10V283C206,277.5,201.5,273,196,273z"
			/>
		<path id="XMLID_1600_" d="M236,273c-5.5,0-10,4.5-10,10v20.7c0,5.5,4.5,10,10,10s10-4.5,10-10V283C246,277.5,241.5,273,236,273z"
			/>
		<path id="XMLID_1601_" d="M276,273c-5.5,0-10,4.5-10,10v20.7c0,5.5,4.5,10,10,10s10-4.5,10-10V283C286,277.5,281.5,273,276,273z"
			/>
		<path id="XMLID_1602_" d="M316,273c-5.5,0-10,4.5-10,10v20.7c0,5.5,4.5,10,10,10s10-4.5,10-10V283C326,277.5,321.5,273,316,273z"
			/>
		<path id="XMLID_1604_" d="M356,273c-5.5,0-10,4.5-10,10v20.7c0,5.5,4.5,10,10,10s10-4.5,10-10V283C366,277.5,361.5,273,356,273z"
			/>
		<path id="XMLID_1608_" d="M502,355.8h-40v-22c0-5.5-4.5-10-10-10h-46v-68h7c5.5,0,10-4.5,10-10s-4.5-10-10-10h-28v-52.1
			c5.1-0.5,9-4.8,9-9.9c0-5.5-4.5-10-10-10h-9h-15.7v-8.7c0-53.6-41-97.8-93.3-102.8V10.2c0-5.5-4.5-10-10-10s-10,4.5-10,10v42.2
			c-52.3,5-93.3,49.2-93.3,102.8v8.7H137h-9c-5.5,0-10,4.5-10,10c0,5.2,3.9,9.4,9,9.9v52.1H99c-5.5,0-10,4.5-10,10s4.5,10,10,10h7
			v68H60c-5.5,0-10,4.5-10,10v22H10c-5.5,0-10,4.5-10,10v136c0,5.5,4.5,10,10,10h492c5.5,0,10-4.5,10-10v-136
			C512,360.3,507.5,355.8,502,355.8z M172.7,155.2c0-45.9,37.4-83.3,83.3-83.3s83.3,37.4,83.3,83.3v8.7H172.7V155.2z M147,183.8
			h15.7h186.7H365v52H147V183.8z M126,255.8h260v68H126V255.8z M20,375.8h30v116H20V375.8z M70,365.8v-22h372v22v126H70V365.8z
			 M492,491.8h-30v-116h30V491.8z"/>
	</g>
</g>
</svg>
