<?xml version="1.0" encoding="utf-8"?>
<!-- Generator: Adobe Illustrator 23.0.1, SVG Export Plug-In . SVG Version: 6.00 Build 0)  -->
<svg version="1.1" xmlns="http://www.w3.org/2000/svg" xmlns:xlink="http://www.w3.org/1999/xlink" x="0px" y="0px"
	 viewBox="0 0 20 12" style="enable-background:new 0 0 20 12;" xml:space="preserve">
<g id="Слой_1">
</g>
<g id="Layer_1">
	<g>
		<g>
			<path d="M6.8,7.8H3.2C2.9,7.8,2.7,8,2.7,8.3c0,0.3,0.2,0.5,0.5,0.5h3.6c0.3,0,0.5-0.2,0.5-0.5C7.3,8,7.1,7.8,6.8,7.8z"/>
		</g>
	</g>
	<g>
		<g>
			<path d="M5.5,5.5H1.8C1.5,5.5,1.4,5.7,1.4,6c0,0.3,0.2,0.5,0.5,0.5h3.6c0.3,0,0.5-0.2,0.5-0.5S5.7,5.5,5.5,5.5z"/>
		</g>
	</g>
	<g>
		<g>
			<path d="M4.1,3.3H0.5C0.2,3.3,0,3.5,0,3.7s0.2,0.5,0.5,0.5h3.6c0.3,0,0.5-0.2,0.5-0.5S4.4,3.3,4.1,3.3z"/>
		</g>
	</g>
	<g>
		<g>
			<path d="M18.1,2.1C18,1.9,17.6,1.9,17.5,2l-4.8,3.7C12.1,6,11.5,6,11,5.7L6.1,2C6,1.9,5.6,1.9,5.5,2.1C5.4,2.3,5.4,2.6,5.6,2.7
				l4.9,3.7c0.4,0.3,0.9,0.5,1.4,0.5s1-0.1,1.4-0.5L18,2.7C18.2,2.6,18.2,2.3,18.1,2.1z"/>
		</g>
	</g>
	<g>
		<g>
			<path d="M18.6,0.1H4.1c-0.3,0-0.5,0.2-0.5,0.5S3.8,1,4.1,1h14.5c0.3,0,0.5,0.2,0.5,0.5v9.1c0,0.3-0.2,0.5-0.5,0.5H4.1
				c-0.3,0-0.5,0.2-0.5,0.5c0,0.3,0.2,0.5,0.5,0.5h14.5c0.8,0,1.4-0.6,1.4-1.4V1.5C20,0.7,19.4,0.1,18.6,0.1z"/>
		</g>
	</g>
	<g>
		<g>
			<path d="M18,9.3l-2.7-2.7c-0.2-0.2-0.5-0.2-0.6,0c-0.2,0.2-0.2,0.5,0,0.6l2.7,2.7c0.1,0.1,0.2,0.1,0.3,0.1S18,10,18,10
				C18.2,9.8,18.2,9.5,18,9.3z"/>
		</g>
	</g>
</g>
</svg>
