<?xml version="1.0" encoding="utf-8"?>
<!-- Generator: Adobe Illustrator 23.0.1, SVG Export Plug-In . SVG Version: 6.00 Build 0)  -->
<svg version="1.1" xmlns="http://www.w3.org/2000/svg" xmlns:xlink="http://www.w3.org/1999/xlink" x="0px" y="0px"
	 viewBox="0 0 95 60" style="enable-background:new 0 0 95 60;" xml:space="preserve">
<g id="Слой_1">
</g>
<g id="Capa_1">
	<path d="M55,32.7v1.5c0,0.8,0.6,1.4,1.4,1.4c0.8,0,1.4-0.6,1.4-1.4v-1.5c0-0.8-0.6-1.4-1.4-1.4C55.6,31.3,55,31.9,55,32.7z M7.7,32
		c0.1,0,0.2,0,0.3,0c0.7-0.2,1.2-0.9,1-1.7c-0.1-0.6-0.4-1.7,0-2.2c0.3-0.4,1-0.6,2-0.6c4.1-0.1,5.4-2.1,6.6-3.9c0.7-1,1.3-2,2.6-3
		c1.2-0.9,1.7-1,1.8-1c0.1,0.1,0.6,0.8,0.4,3.8c-0.1,1.6,0.2,2.8,0.9,3.6c1,1.2,2.6,1.2,3.8,1.2c0.5,0,1.1,0,1.4,0.1
		c1.2,0.3,2.2,0.2,3.1,0.1c0.5-0.1,1-0.1,1.2,0c0.6,0.6,1.2,0.9,1.9,0.9c1.3,0,2.2-1.1,3.6-2.8c0.1-0.2,0.3-0.3,0.4-0.5
		c0.1-0.1,0.1-0.1,0.2-0.2c0.2,0,0.6,0.3,0.9,0.5c1,0.6,2.6,1.6,4.5,0.7c2.1-0.9,2.7-1.6,3.7-3c0.4-0.5,0.8-1.2,1.6-2
		c1.3-1.5,3.1-1.9,3.8-1.6c0.1,0.1,0.5,0.2,0.3,1.2c-0.2,1.4,0,2.5,0.8,3.2c1.4,1.2,3.5,0.5,5.1,0.1c0.4-0.1,0.8-0.2,0.9-0.3
		c0.1,0,0.5,0.1,0.8,0.2c1.3,0.3,4.2,1,5.6-3c0.9-2.7,1.6-2.8,3.7-3.1c0.2,0,0.4-0.1,0.7-0.1c4.5-0.7,5.4-3.7,6.1-6.1
		c0.2-0.7,0.4-1.3,0.6-1.9c0.4-1,1.2-1.4,2.1-2.1c1.2-0.8,2.8-1.8,3.4-4c0.3-1.1,1.2-1.7,1.7-1.8c0,0.3-0.1,0.8-0.4,1.5
		c-1,2.6-1.3,4-0.8,5.1c0.5,1,1.4,1.3,1.9,1.5c0.2,0.1,0.4,0.1,0.5,0.2c0,0,0,0,0,0c0.5,0.6,1.4,0.6,2,0.1c0.6-0.5,0.6-1.4,0.1-2
		C88.4,9.2,88.2,9.1,88,9c-0.4-0.3-0.9-0.4-1.2-0.6c-0.1,0-0.2-0.1-0.2-0.1c0-0.3,0.1-1,0.8-2.7c0.8-2,0.8-3.5,0-4.5
		c-0.6-0.7-1.6-1-2.6-0.8c-1.5,0.3-3.3,1.7-3.9,3.8c-0.4,1.2-1.2,1.7-2.3,2.5c-1.1,0.7-2.4,1.6-3.2,3.3c-0.3,0.8-0.5,1.5-0.8,2.2
		c-0.6,2.2-1,3.6-3.8,4.1c-0.2,0-0.4,0.1-0.6,0.1c-2.3,0.3-4.4,0.6-5.9,4.9c-0.6,1.6-1,1.5-2.3,1.2c-0.6-0.1-1.2-0.3-1.9-0.2
		c-0.4,0.1-0.8,0.2-1.3,0.4c-0.5,0.2-1.9,0.6-2.4,0.5c0-0.1,0-0.3,0-0.6c0.3-1.9-0.4-3.5-1.9-4.2c-2.1-1-5.2,0.1-7.1,2.3
		c-0.8,0.9-1.3,1.6-1.7,2.2c-0.9,1.2-1.1,1.5-2.6,2.1c-0.6,0.2-1,0-2-0.6c-1-0.6-2.9-1.8-4.7,0.3c-0.1,0.2-0.3,0.3-0.4,0.5
		c-0.5,0.6-1,1.3-1.4,1.6c-1-1-2.3-0.8-3.3-0.7c-0.7,0.1-1.4,0.1-2-0.1c-0.7-0.2-1.4-0.2-2.1-0.2c-0.7,0-1.6-0.1-1.8-0.3
		c-0.1-0.1-0.3-0.5-0.2-1.6c0.1-2.3,0.1-5.4-1.9-6.5c-1.9-1-4.1,0.7-4.8,1.2c-1.6,1.2-2.5,2.6-3.2,3.6c-1.1,1.7-1.7,2.6-4.4,2.7
		c-1.9,0.1-3.3,0.6-4.2,1.7c-1.2,1.5-0.7,3.6-0.5,4.5C6.4,31.5,7,32,7.7,32L7.7,32z M48.8,33.3c-0.3,0.4-0.8,0.6-1.3,0.6
		s-1-0.2-1.3-0.6c-0.5-0.6-1.4-0.6-2-0.1c-0.6,0.5-0.6,1.4-0.1,2c0.9,1,2.1,1.5,3.4,1.5c1.3,0,2.5-0.6,3.4-1.5
		c0.5-0.6,0.4-1.5-0.1-2C50.2,32.7,49.3,32.7,48.8,33.3L48.8,33.3z M92.2,23.3c-0.4-0.5-0.8-0.9-1.1-1.3c-1.7-1.9-2.2-2.6-1.7-3.8
		c0.1-0.3,0.2-0.6,0.3-0.9c0.2-0.7-0.2-1.5-1-1.7c-0.7-0.2-1.5,0.2-1.7,1c-0.1,0.2-0.1,0.4-0.2,0.5c-1.2,2.9,0.5,4.8,2.2,6.7
		c0.4,0.4,0.7,0.8,1.1,1.3c1.2,1.5,2,4,2.1,5.2c-2.9-0.7-4.5-2.1-4.8-4l-0.1-0.5c-0.3-2.2-0.7-4.5-2.6-5c-1.2-0.3-2.8,0.1-3.9,1
		c-0.9,0.8-1.4,1.9-1.2,3.1c0,0.4,0.1,0.8,0.1,1.2c0.2,1.5,0.5,3.6-0.3,4.2c-2,1.4-2.2,3.5-2.4,5.8c0,0.5-0.1,1-0.2,1.5
		c-0.2,1.5,0.3,2.3,0.8,2.7c1.2,1,3,0.4,4.4,0c0.3-0.1,0.6-0.2,0.8-0.3c0.5-0.1,1.2,0.8,2.2,2.8c0.3,0.6,0.6,1.1,0.9,1.6
		c1,1.5,1.7,2.7,0.9,6.7c-0.4,1.8-0.9,2.3-1.1,2.4c-0.1-0.1-0.4-0.5-0.2-1c0.6-2,0.6-3.6,0-4.6c-0.4-0.7-1.1-1.1-1.9-1.3
		c-0.8-0.1-1.3,0-1.9,0.4c-0.1,0.1-0.5,0.4-2.5,0.8c-2.2,0.4-2.6,0-3.6-0.8c-0.5-0.4-1-0.9-1.8-1.3c-1.4-0.8-2.3-0.6-2.9-0.3
		c-1.7,0.9-2,3.6-2.2,7.8c0,0.6-0.2,1-0.4,1.2c-0.4,0.4-1.9,0.1-3,0c-1.3-0.2-2.9-0.4-4.3-0.1c-1.9,0.4-3.3-0.1-4.4-0.5
		c-0.7-0.2-1.2-0.4-1.8-0.4c-1.5,0-1.9,1.4-2,2c-0.1,0.2-0.2,0.6-0.3,0.7c-0.1,0-0.3,0-0.9-0.2c-2.8-1-4.5,0.1-5.6,0.8
		c-0.6,0.4-1,0.6-1.3,0.6c-1.3,0-4.3-0.3-5.1-3.3c-0.8-3-3.1-3.2-4.3-3.3c-0.1,0-0.3,0-0.4,0c-0.5-2.9-3.5-3-7.3-3.2
		c-2.5-0.1-3.6,0.6-4,2.3c0,0.1,0,0.1,0,0.2c0,0-0.1,0.1-0.3,0.1c-1.8,0.4-3.6-1.8-3.8-2.5c-0.4-1.1-1.7-2.9-6.2-2.1
		c-2.5,0.4-2.7,2.9-2.7,4.2c0,0.2,0,0.4-0.1,0.6c-1.7,0.1-2.5,1.9-3,3.2c-0.4-1.3-1.1-3-3.4-4.3c-0.6-0.3-1.3-0.9-1.3-1.6
		c0-0.4,0.2-0.7,0.3-0.9c1,0,4.1-0.1,5.3-2c0.5-0.8,0.9-2.2-0.2-4.2c-0.6-1-0.8-2.1-0.6-3.2c0.1-0.8-0.4-1.5-1.2-1.6
		c-0.8-0.1-1.5,0.4-1.6,1.2c-0.3,1.8,0,3.4,0.9,5c0.4,0.6,0.5,1.1,0.3,1.4c-0.4,0.6-2.2,0.8-3.1,0.7c-1.3-0.1-2.4,1.1-2.8,2.4
		c-0.2,0.8-0.8,3.4,2.6,5.3c1.7,0.9,1.9,2.1,2.2,3.2c0.2,0.9,0.6,2.2,2,2.5c1.8,0.4,2.5-1.5,3.1-2.7c0.2-0.5,0.6-1.3,0.8-1.6
		c0.7,0,1.3-0.2,1.5-0.5c0.8-0.7,0.9-1.8,0.9-2.8c0.1-1.4,0.2-1.6,0.5-1.6c2-0.4,2.9,0,3,0.3c0.6,1.9,3.7,5.2,7.1,4.3
		c2-0.5,2.3-1.9,2.4-2.5c0,0,0,0,0,0c0.2,0,0.5-0.1,1.1,0c1.8,0.1,3.3,0.2,4.1,0.4c0.5,0.2,0.5,0.3,0.6,0.6c0.2,1.9,2,2.1,2.9,2.2
		c1.2,0.1,1.6,0.2,1.9,1.3c1.3,4.9,6.3,5.3,7.7,5.3c1.2,0,2.1-0.6,2.8-1c1-0.6,1.7-1,3.2-0.5c1.3,0.4,2.3,0.4,3.1,0
		c1-0.5,1.4-1.5,1.6-2.2c0.1,0,0.2,0.1,0.3,0.1c1.3,0.5,3.2,1.2,5.9,0.6c0.9-0.2,2.1,0,3.2,0.2c1.8,0.3,3.8,0.6,5.2-0.6
		c0.8-0.7,1.3-1.7,1.4-3.2c0.1-1.6,0.3-4.6,0.7-5.4c0.1,0,0.1,0.1,0.2,0.1c0.6,0.3,1,0.7,1.5,1.1c1.5,1.2,2.7,1.9,5.9,1.4
		c2.1-0.4,2.9-0.8,3.5-1.1c0.1,0.2,0.2,0.9-0.3,2.3c-0.4,1.3-0.1,2.8,0.9,3.7c0.8,0.8,1.8,1.1,2.8,0.8c1-0.3,2.4-1.3,3.1-4.5
		c1.1-5.1-0.1-7-1.3-8.8c-0.3-0.4-0.5-0.8-0.8-1.3c-0.9-1.9-2.5-5-5.4-4.3c-0.3,0.1-0.7,0.2-1,0.3c-0.4,0.1-1.1,0.4-1.6,0.4
		c0,0,0,0,0-0.1c0.1-0.6,0.1-1.1,0.2-1.6c0.2-2.1,0.4-3.1,1.2-3.7c2.2-1.5,1.8-4.6,1.5-6.8c-0.1-0.4-0.1-0.8-0.1-1.1
		c0-0.3,0.1-0.5,0.3-0.7c0.4-0.3,1-0.4,1.3-0.4c0.3,0.4,0.5,1.8,0.6,2.8l0.1,0.5c0.4,2.3,1.9,5.2,7.6,6.4c1,0.2,1.8-0.1,2.3-0.9
		C95.9,30,93.8,25.2,92.2,23.3L92.2,23.3z M38.6,31.3c-0.8,0-1.4,0.6-1.4,1.4v1.5c0,0.8,0.6,1.4,1.4,1.4s1.4-0.6,1.4-1.4v-1.5
		C40,31.9,39.4,31.3,38.6,31.3z"/>
</g>
</svg>
