<?xml version="1.0" encoding="utf-8"?>
<!-- Generator: Adobe Illustrator 23.0.1, SVG Export Plug-In . SVG Version: 6.00 Build 0)  -->
<svg version="1.1" id="Слой_1" xmlns="http://www.w3.org/2000/svg" xmlns:xlink="http://www.w3.org/1999/xlink" x="0px" y="0px"
	 viewBox="0 0 480 480" style="enable-background:new 0 0 480 480;" xml:space="preserve">
<path d="M176,464h304v-16h-8V306.6l-48.5-19.4c-7.3-37.4-12.3-75.1-15-113.1l-1-14.1H392v-4c0-6.6,5.4-12,12-12h8
	c15.5,0,28-12.5,28-28c0-6.6,5.4-12,12-12h28V88h-28c-15.5,0-28,12.5-28,28c0,6.6-5.4,12-12,12h-8c-15.5,0-28,12.5-28,28v4H256v-28
	c0-15.5,12.5-28,28-28h16c24.3,0,44-19.7,44-44c0-15.5,12.5-28,28-28h60V16h-60c-24.3,0-44,19.7-44,44c0,15.5-12.5,28-28,28h-96
	c-24.3,0-44,19.7-44,44c0,15.5-12.5,28-28,28h-16c-24.3,0-44,19.7-44,44v28H56.6l-0.9,12.4c-5,69.7-20.2,138.3-45.2,203.6H0v16H176z
	 M296,368h-16c-8.8,0-16,7.2-16,16v64h-16v-88c0-4.4,3.6-8,8-8h40V368z M280,448v-64h16v64H280z M456,448h-56v-24h-32v24h-56V317.4
	l72-28.8l72,28.8V448z M384,271.4l-88,35.2V336h-40c-13.3,0-24,10.7-24,24v88h-44.5c29.2-77.2,48.3-157.9,57-240h150.9
	c2.6,24.2,6.1,48.3,10.5,72.1L384,271.4z M205.3,337.7c-6.4-30.8-10.7-61.9-12.9-93.3l-0.9-12.4H176v-4c0-6.6,5.4-12,12-12h8
	c15.5,0,28-12.5,28-28c0-4.8,2.9-9.1,7.3-11C227.2,231.2,218.5,284.9,205.3,337.7z M392.6,176c0.4,5.3,0.9,10.7,1.4,16H246
	c0.5-5.3,1.1-10.7,1.5-16H392.6z M88,204c0-15.5,12.5-28,28-28h16c24.3,0,44-19.7,44-44c0-15.5,12.5-28,28-28h46.1
	c-6.5,7.9-10.1,17.8-10.1,28v28h-7.4v0.4c-14,1.7-24.5,13.6-24.6,27.6c0,6.6-5.4,12-12,12h-8c-15.5,0-28,12.5-28,28v4H88V204z
	 M176.6,248c0.4,5.3,1,10.7,1.5,16H70c0.5-5.3,1.1-10.7,1.5-16H176.6z M68.2,280h111.4c3.6,30.3,9.1,60.3,16.5,89.9l0.4-0.1
	c-7.6,26.4-16.2,52.5-26.1,78.2H27.6C47.8,393.8,61.4,337.4,68.2,280z"/>
<path d="M328,328h16v16h-16V328z"/>
<path d="M360,328h16v16h-16V328z"/>
<path d="M392,328h16v16h-16V328z"/>
<path d="M424,328h16v16h-16V328z"/>
<path d="M328,360h16v16h-16V360z"/>
<path d="M360,360h16v16h-16V360z"/>
<path d="M392,360h16v16h-16V360z"/>
<path d="M424,360h16v16h-16V360z"/>
<path d="M328,392h16v16h-16V392z"/>
<path d="M360,392h16v16h-16V392z"/>
<path d="M392,392h16v16h-16V392z"/>
<path d="M424,392h16v16h-16V392z"/>
<path d="M64,392h40v16H64V392z"/>
<path d="M64,416h24v16H64V416z"/>
<path d="M224,56h64v16h-64V56z"/>
<path d="M448,16h32v16h-32V16z"/>
</svg>
