<?xml version="1.0" encoding="utf-8"?>
<!-- Generator: Adobe Illustrator 23.0.1, SVG Export Plug-In . SVG Version: 6.00 Build 0)  -->
<svg version="1.1" id="Слой_1" xmlns="http://www.w3.org/2000/svg" xmlns:xlink="http://www.w3.org/1999/xlink" x="0px" y="0px"
	 viewBox="0 0 85 51" style="enable-background:new 0 0 85 51;" xml:space="preserve">
<path d="M84,18.5L42.9,0.1c-0.3-0.1-0.7-0.1-1,0L25.2,7.6c-0.6,0.3-0.9,1-0.6,1.7c0.3,0.6,1,0.9,1.7,0.6l16.2-7.2l14.8,6.6v9.2
	c-7.9-2.9-14.5-3.1-14.8-3.1c0,0,0,0-0.1,0c-0.3,0-7.9,0.3-16.5,3.8c-3.4,1.4-6.6,3.1-9.3,5.2c-0.2,0.2-0.4,0.4-0.4,0.6L4.3,19.6
	l16.5-7.4c0.6-0.3,0.9-1,0.6-1.7c-0.3-0.6-1-0.9-1.7-0.6L0.7,18.5C0.3,18.7,0,19.2,0,19.6c0,0.5,0.3,0.9,0.7,1.1l15.3,6.8v6
	c0,0.7,0.6,1.3,1.3,1.3c0.7,0,1.3-0.6,1.3-1.3v-6.8c0,0,0,0,0,0V26c2.5-1.8,5.2-3.3,8.2-4.5c7.9-3.2,15-3.6,15.6-3.6
	c0.5,0,7.2,0.3,14.8,3.3v12.5c-1.8,0.5-3.2,2.2-3.2,4.2c0,1.8,1.1,3.4,2.7,4.1l-0.9,2.3c-5.7,1-10.3,2.3-13.5,4
	c-7.4-3.9-19.9-5-23.8-5.3v-3.5c0-0.7-0.6-1.3-1.3-1.3c-0.7,0-1.3,0.6-1.3,1.3v4.7c0,0.7,0.5,1.2,1.2,1.3c0.2,0,16.5,0.8,24.5,5.4
	c0.2,0.1,0.4,0.2,0.6,0.2c0.2,0,0.4-0.1,0.6-0.2c2.7-1.5,6.8-2.9,11.8-3.8l-0.7,2c-0.1,0.4-0.1,0.8,0.1,1.2c0.2,0.3,0.6,0.5,1,0.5
	h6.4c0.4,0,0.8-0.2,1-0.5c0.2-0.3,0.3-0.8,0.1-1.2l-1.1-3c3.4-0.4,5.8-0.5,5.9-0.5c0.7,0,1.2-0.6,1.2-1.3v-4.7
	c0-0.7-0.6-1.3-1.3-1.3c-0.7,0-1.3,0.6-1.3,1.3V43c-1.2,0.1-3.1,0.2-5.5,0.5L60.1,42c1.6-0.7,2.7-2.3,2.7-4.1c0-2-1.3-3.7-3.2-4.2
	V22.2c2.4,1.1,4.5,2.3,6.5,3.7v0.9v0v6.8c0,0.7,0.6,1.3,1.3,1.3c0.7,0,1.3-0.6,1.3-1.3v-6L84,20.8c0.5-0.2,0.7-0.7,0.7-1.1
	C84.8,19.2,84.5,18.7,84,18.5z M57.1,48.2l1.4-3.6l1.4,3.6H57.1z M60.4,37.9c0,1.1-0.9,1.9-1.9,1.9c-1.1,0-1.9-0.9-1.9-1.9
	c0-1.1,0.9-1.9,1.9-1.9C59.5,36,60.4,36.8,60.4,37.9z M68.7,24.9c-0.1-0.2-0.2-0.4-0.4-0.6c-2.5-1.9-5.4-3.5-8.5-4.8v-9.1l20.8,9.3
	L68.7,24.9z"/>
</svg>
