<?xml version="1.0" encoding="utf-8"?>
<!-- Generator: Adobe Illustrator 23.0.1, SVG Export Plug-In . SVG Version: 6.00 Build 0)  -->
<svg version="1.1" xmlns="http://www.w3.org/2000/svg" xmlns:xlink="http://www.w3.org/1999/xlink" x="0px" y="0px"
	 viewBox="0 0 77 57" style="enable-background:new 0 0 77 57;" xml:space="preserve">
<g id="Слой_1">
</g>
<g id="Layer_1">
	<g>
		<g>
			<path d="M67.9,25.7c-2.6-1.3-7.5-1.3-7.7-1.3c-0.6,0-1.1,0.5-1.1,1.1c0,0.6,0.5,1.1,1.1,1.1c1.3,0,4.9,0.2,6.7,1.1
				c0.2,0.1,0.3,0.1,0.5,0.1c0.4,0,0.8-0.2,1-0.6C68.7,26.6,68.5,26,67.9,25.7z"/>
		</g>
	</g>
	<g>
		<g>
			<path d="M73.6,41.7l-4.7-1.3c-0.2-0.1-0.3-0.2-0.3-0.5v-1.6c0.4-0.3,0.7-0.6,1.1-0.9c1.6-1.6,2.5-3.7,2.5-6v-2.1l0.5-0.9
				c0.5-1,0.8-2.1,0.8-3.2v-5.8c0-0.6-0.5-1.1-1.1-1.1H61.4c-3.9,0-7.2,3.2-7.2,7.2v0.1c0,0.9,0.2,1.8,0.6,2.7l0.6,1.2v1.8
				c0,2.9,1.4,5.5,3.6,7.1l0,1.6c0,0.3,0,0.4-0.9,0.6l-2.3,0.6l-6.6-2.4c0-0.3-0.1-0.6-0.3-0.9l-2.1-2.2v-3.7
				c0.2-0.2,0.4-0.4,0.7-0.6c2.7-2.5,4.2-6,4.2-9.6v-3c0.8-1.7,1.2-3.6,1.2-5.5V1.4c0-0.6-0.5-1.1-1.1-1.1H34.9
				C29,0.2,24.1,5.1,24.1,11v2.4c0,1.9,0.4,3.7,1.2,5.5v2.5c0,4.2,1.9,8,4.8,10.5v3.8L28,38c-0.2,0.2-0.3,0.6-0.3,0.9l-6.9,2.5
				c-0.5,0.2-1,0.4-1.4,0.7l-1.1-0.5c3.2-1.4,4.3-3.4,4.3-3.5c0.2-0.3,0.2-0.7,0-1c-0.8-1.6-0.9-4.6-1-7c0-0.8-0.1-1.6-0.1-2.2
				c-0.4-5.4-4.5-9.5-9.6-9.5s-9.2,4.1-9.6,9.5c0,0.7-0.1,1.4-0.1,2.2c-0.1,2.4-0.2,5.4-1,7c-0.2,0.3-0.2,0.7,0,1
				c0,0.1,1.1,2.1,4.3,3.5l-3,1.5C1,43.9,0,45.5,0,47.3v8.3c0,0.6,0.5,1.1,1.1,1.1s1.1-0.5,1.1-1.1v-8.3c0-0.9,0.5-1.8,1.4-2.2
				l3.8-1.9l1.3,1.2c0.9,0.9,2.1,1.3,3.3,1.3c1.2,0,2.4-0.4,3.3-1.3l1.3-1.2l1.2,0.6c-0.6,0.9-0.9,2-0.9,3.1v8.7
				c0,0.6,0.5,1.1,1.1,1.1s1.1-0.5,1.1-1.1V47c0-1.5,1-2.9,2.4-3.5l7.3-2.7l3,4.6c0.4,0.6,1,1,1.7,1c0.1,0,0.2,0,0.2,0
				c0.6,0,1.2-0.2,1.6-0.7l1.9-1.9v11.7c0,0.6,0.5,1.1,1.1,1.1c0.6,0,1.1-0.5,1.1-1.1V43.9l1.9,1.9c0.4,0.4,1,0.7,1.6,0.7
				c0.1,0,0.2,0,0.2,0c0.7-0.1,1.3-0.4,1.7-1l3-4.6l7.3,2.7c1.5,0.5,2.4,1.9,2.4,3.5v8.7c0,0.6,0.5,1.1,1.1,1.1
				c0.6,0,1.1-0.5,1.1-1.1V47c0-1.6-0.6-3-1.7-4.1l0.3-0.1c0.3-0.1,0.7-0.2,1-0.4l2.9,2.9v10.4c0,0.6,0.5,1.1,1.1,1.1
				s1.1-0.5,1.1-1.1V45.2l2.9-2.9c0.2,0.1,0.3,0.1,0.5,0.2l4.7,1.3c1.1,0.3,1.8,1.3,1.8,2.4v9.3c0,0.6,0.5,1.1,1.1,1.1
				s1.1-0.5,1.1-1.1v-9.3C77,44.2,75.6,42.3,73.6,41.7z M7.2,39.7C5.1,39,4.1,38,3.6,37.4c0.3-0.8,0.5-1.7,0.6-2.7
				c0.6,1.5,1.7,2.8,3,3.7V39.7z M13.7,42.8c-1,0.9-2.5,0.9-3.4,0l-1-1c0.2-0.3,0.3-0.7,0.3-1.1v-1.2c0.8,0.2,1.6,0.4,2.5,0.4
				c0.9,0,1.7-0.1,2.5-0.4l0,1.2c0,0.4,0.1,0.8,0.3,1.1L13.7,42.8z M12,37.6c-3.4,0-6.1-2.7-6.1-6.1c0-0.6-0.5-1.1-1.1-1.1
				c-0.1,0-0.1,0-0.2,0c0-0.1,0-0.2,0-0.3c0-0.8,0-1.5,0.1-2.1c0.1-2,1-3.9,2.3-5.3c1.3-1.4,3.1-2.1,5-2.1s3.7,0.8,5,2.1
				c1.3,1.4,2.1,3.2,2.3,5.3c0,0.6,0.1,1.4,0.1,2.1c0,0.1,0,0.1,0,0.2c-1.2-1.9-3.1-3.3-5.6-4.1c-2.3-0.7-4.2-0.7-4.3-0.7
				c-0.3,0-0.6,0.1-0.8,0.3l-2,2.1c-0.4,0.4-0.4,1.2,0,1.6c0.4,0.4,1.2,0.4,1.6,0l1.7-1.8c1.5,0.1,6.2,0.6,8,4.6
				C17.6,35.4,15,37.6,12,37.6z M16.7,39.8l0-1.3c1.3-0.9,2.4-2.2,3-3.7c0.1,1,0.3,1.9,0.6,2.7C19.9,38,18.8,39,16.7,39.8z
				 M27.6,21.5v-2.8c0-0.2,0-0.3-0.1-0.5c-0.7-1.5-1.1-3.1-1.1-4.7V11c0-4.7,3.8-8.5,8.5-8.5h15.8v10.9c0,1.6-0.4,3.2-1.1,4.7
				c-0.1,0.2-0.1,0.3-0.1,0.5v3.2c0,3.1-1.2,5.9-3.5,8c-0.3,0.3-0.6,0.5-0.9,0.7c0,0,0,0,0,0c-2.1,1.6-4.6,2.4-7.3,2.2
				C32.1,32.4,27.6,27.4,27.6,21.5z M33.9,44.1C33.9,44.2,33.9,44.2,33.9,44.1c-0.1,0-0.1,0-0.1,0l-3.5-5.3l1.1-1.2l5.3,3.6
				L33.9,44.1z M38.5,39.8l-6.1-4.2v-2.1c1.6,0.9,3.4,1.4,5.2,1.5c0.3,0,0.6,0,0.9,0c2.2,0,4.2-0.5,6.1-1.5v2.1L38.5,39.8z
				 M43.2,44.1C43.2,44.1,43.2,44.2,43.2,44.1c-0.1,0-0.1,0-0.1,0l-2.8-2.8l5.3-3.6l1.1,1.2L43.2,44.1z M63.8,43.2l-2.6-2.6
				c0-0.2,0.1-0.4,0.1-0.7l0-0.5c0.7,0.2,1.5,0.4,2.2,0.4c0.1,0,0.2,0,0.3,0c0.9,0,1.7-0.1,2.5-0.4V40c0,0.2,0,0.4,0.1,0.7
				L63.8,43.2z M68.1,35.9c-1.2,1.2-2.8,1.8-4.4,1.7c-3.3-0.1-5.9-3-5.9-6.4v-2.1c0-0.2,0-0.3-0.1-0.5l-0.7-1.4
				c-0.3-0.5-0.4-1.1-0.4-1.7v-0.1c0-2.7,2.2-4.9,4.9-4.9h9.7v4.7c0,0.8-0.2,1.5-0.5,2.2L70,28.6c-0.1,0.2-0.1,0.3-0.1,0.5v2.4
				C69.9,33.2,69.3,34.7,68.1,35.9z"/>
		</g>
	</g>
	<g>
		<g>
			<path d="M71,47.3c-0.6,0-1.1,0.5-1.1,1.1v7.2c0,0.6,0.5,1.1,1.1,1.1s1.1-0.5,1.1-1.1v-7.2C72.2,47.8,71.7,47.3,71,47.3z"/>
		</g>
	</g>
	<g>
		<g>
			<path d="M6,48.8c-0.6,0-1.1,0.5-1.1,1.1v5.7c0,0.6,0.5,1.1,1.1,1.1s1.1-0.5,1.1-1.1v-5.7C7.1,49.3,6.6,48.8,6,48.8z"/>
		</g>
	</g>
	<g>
		<g>
			<path d="M47.8,13.8c-4.3-4.3-13.2-3.5-16.8-2.9c-1.1,0.2-2,1.1-2,2.3v2.6c0,0.6,0.5,1.1,1.1,1.1s1.1-0.5,1.1-1.1v-2.6
				c0,0,0-0.1,0.1-0.1c1.5-0.2,4.3-0.6,7.3-0.4c3.5,0.2,6.1,1.1,7.6,2.6c0.4,0.4,1.2,0.4,1.6,0C48.2,15,48.2,14.3,47.8,13.8z"/>
		</g>
	</g>
	<g>
		<g>
			<path d="M25.2,49.7c-0.6,0-1.1,0.5-1.1,1.1v4.8c0,0.6,0.5,1.1,1.1,1.1s1.1-0.5,1.1-1.1v-4.8C26.4,50.2,25.9,49.7,25.2,49.7z"/>
		</g>
	</g>
	<g>
		<g>
			<path d="M51.8,49.7c-0.6,0-1.1,0.5-1.1,1.1v4.8c0,0.6,0.5,1.1,1.1,1.1s1.1-0.5,1.1-1.1v-4.8C52.9,50.2,52.4,49.7,51.8,49.7z"/>
		</g>
	</g>
</g>
</svg>
