<?xml version="1.0" encoding="utf-8"?>
<!-- Generator: Adobe Illustrator 23.0.1, SVG Export Plug-In . SVG Version: 6.00 Build 0)  -->
<svg version="1.1" id="Слой_1" xmlns="http://www.w3.org/2000/svg" xmlns:xlink="http://www.w3.org/1999/xlink" x="0px" y="0px"
	 viewBox="0 0 480 480" style="enable-background:new 0 0 480 480;" xml:space="preserve">
<path d="M216,32h16v16h-16V32z"/>
<path d="M248,32h16v16h-16V32z"/>
<path d="M216,64h16v16h-16V64z"/>
<path d="M248,64h16v16h-16V64z"/>
<path d="M216,96h16v16h-16V96z"/>
<path d="M248,96h16v16h-16V96z"/>
<path d="M216,128h16v16h-16V128z"/>
<path d="M248,128h16v16h-16V128z"/>
<path d="M216,160h16v16h-16V160z"/>
<path d="M248,160h16v16h-16V160z"/>
<path d="M312,160h16v16h-16V160z"/>
<path d="M312,192h16v16h-16V192z"/>
<path d="M312,224h16v16h-16V224z"/>
<path d="M312,256h16v16h-16V256z"/>
<path d="M152,160h16v16h-16V160z"/>
<path d="M152,192h16v16h-16V192z"/>
<path d="M152,224h16v16h-16V224z"/>
<path d="M152,256h16v16h-16V256z"/>
<path d="M472,80h-8V56c0-4.4-3.6-8-8-8h-88c-4.4,0-8,3.6-8,8v24h-8c-4.4,0-8,3.6-8,8v40h-16V56c0-4.4-3.6-8-8-8h-24V8
	c0-4.4-3.6-8-8-8h-96c-4.4,0-8,3.6-8,8v40h-24c-4.4,0-8,3.6-8,8v72h-16V88c0-4.4-3.6-8-8-8h-8V56c0-4.4-3.6-8-8-8H24
	c-4.4,0-8,3.6-8,8v24H8c-4.4,0-8,3.6-8,8v176h16V96h104v104h16v-56h48v48h16V16h80v176h16v-48h48v96h16V96h104v168h16V88
	C480,83.6,476.4,80,472,80z M32,80V64h72v16H32z M168,128V64h16v64H168z M296,128V64h16v64H296z M376,80V64h72v16H376z"/>
<path d="M376,112h32v16h-32V112z"/>
<path d="M424,112h32v16h-32V112z"/>
<path d="M376,144h32v16h-32V144z"/>
<path d="M424,144h32v16h-32V144z"/>
<path d="M440,272h-0.2c5.3-6.9,8.2-15.3,8.2-24v-16c0-22.1-17.9-40-40-40s-40,17.9-40,40v16c0,8.7,2.9,17.1,8.2,24H376
	c-17.7,0-33.7,10.5-40.8,26.8L324,322.7l-11.2-23.8c-7-16.3-23-26.9-40.8-26.9h-0.2c5.3-6.9,8.2-15.3,8.2-24v-16
	c0-22.1-17.9-40-40-40s-40,17.9-40,40v16c0,8.7,2.9,17.1,8.2,24H208c-17.7,0-33.6,10.5-40.7,26.7l-11.3,24l-11.2-23.8
	c-7-16.3-23.1-26.9-40.8-26.9h-0.2c5.3-6.9,8.2-15.3,8.2-24v-16c0-22.1-17.9-40-40-40s-40,17.9-40,40v16c0,8.7,2.9,17.1,8.2,24H40
	c-22.1,0-40,17.9-40,40v72c0,4.4,3.6,8,8,8h24v72H0v16h480v-16h-32v-72h24c4.4,0,8-3.6,8-8v-72C480,289.9,462.1,272,440,272z
	 M384,248v-16c0-13.3,10.7-24,24-24s24,10.7,24,24v16c0,13.3-10.7,24-24,24S384,261.3,384,248z M216,248v-16c0-13.3,10.7-24,24-24
	s24,10.7,24,24v16c0,13.3-10.7,24-24,24S216,261.3,216,248z M48,248v-16c0-13.3,10.7-24,24-24s24,10.7,24,24v16
	c0,13.3-10.7,24-24,24S48,261.3,48,248z M80,464v-80H64v80H48V312H32v64H16v-64c0-13.3,10.7-24,24-24h64c11.5,0,21.8,6.9,26.2,17.5
	l33.2,70.5h-22.5l-29.7-59.6c-1.6-3.4-5.4-5.2-9-4.3c-3.6,0.9-6.2,4.1-6.2,7.9v144H80z M178.2,391.7c0.2-0.1,0.4-0.2,0.7-0.3
	c0.5-0.2,0.9-0.4,1.3-0.6c0.6-0.4,1.1-0.8,1.7-1.4c0.2-0.2,0.4-0.4,0.6-0.7c0.2-0.2,0.3-0.3,0.4-0.5c0.1-0.2,0.2-0.4,0.3-0.6
	c0.1-0.2,0.2-0.3,0.3-0.4l16.7-37.6V464h-88V353.9l16.8,33.7c1.4,2.7,4.1,4.4,7.2,4.4h40C176.7,392,177.5,391.9,178.2,391.7z
	 M248,464v-72h-16v72h-16V312c0-3.8-2.6-7-6.3-7.8s-7.4,1.1-9,4.6l-24.9,56l-10.9-23.3l17.1-36.3c2.2-5.1,5.9-9.5,10.5-12.6
	c4.6-3.1,10-4.7,15.6-4.6h64c11.5,0,21.8,6.9,26.2,17.5l17,36l-11.4,24.2l-24.6-49.2c-1.6-3.4-5.4-5.2-9-4.3
	c-3.6,0.9-6.2,4.1-6.2,7.9v144H248z M351.3,387.2l16.7-37.6V464h-88V353.9l16.8,33.7c0.1,0.1,0.2,0.2,0.2,0.3
	c0.1,0.1,0.1,0.3,0.2,0.4c0.2,0.2,0.3,0.4,0.5,0.6c0.2,0.2,0.4,0.4,0.5,0.7c0.3,0.3,0.6,0.6,1,0.8c0.2,0.2,0.4,0.3,0.7,0.5
	c0.4,0.2,0.8,0.4,1.3,0.6c0.2,0.1,0.4,0.2,0.6,0.3c0.7,0.2,1.4,0.3,2.2,0.3h40C347.2,392,350,390.1,351.3,387.2z M464,376h-16v-72
	h-16v160h-16v-80h-16v80h-16V312c0-3.8-2.6-7-6.3-7.8s-7.4,1.1-9,4.6L338.8,376h-22.2l33.2-70.5c0-0.1,0.1-0.2,0.1-0.3
	c4.5-10.4,14.7-17.2,26.1-17.2h64c13.3,0,24,10.7,24,24V376z"/>
<path d="M32,112h72v16H32V112z"/>
<path d="M32,144h72v16H32V144z"/>
</svg>
